<svg xmlns="http://www.w3.org/2000/svg" xmlns:xlink="http://www.w3.org/1999/xlink" width="37" height="37" viewBox="0 0 37 37"><defs><style>.a{fill:rgba(0,0,0,0.15);opacity:0;}.b{filter:url(#a);}</style><filter id="a" x="3.373" y="6.24" width="29.272" height="29.308" filterUnits="userSpaceOnUse"><feOffset dy="2" input="SourceAlpha"/><feGaussianBlur stdDeviation="2" result="b"/><feFlood flood-opacity="0.102"/><feComposite operator="in" in2="b"/><feComposite in="SourceGraphic"/></filter></defs><g transform="translate(0 0.079)"><rect class="a" width="37" height="37" rx="8" transform="translate(0 -0.079)"/><g transform="translate(9.373 10.161)"><g transform="translate(0)"><g class="b" transform="matrix(1, 0, 0, 1, -9.37, -10.24)"><path d="M17.358,12.7l-2.415-2.415a1.607,1.607,0,0,0-2.674.6,1.644,1.644,0,0,1-1.9,1.035A7.448,7.448,0,0,1,5.885,7.44a1.563,1.563,0,0,1,1.035-1.9,1.607,1.607,0,0,0,.6-2.674L5.109.453a1.723,1.723,0,0,0-2.329,0L1.14,2.092c-1.639,1.725.173,6.3,4.227,10.352s8.626,5.952,10.352,4.227l1.639-1.639A1.723,1.723,0,0,0,17.358,12.7Z" transform="translate(8.83 10.24)"/></g></g></g></g></svg>