<svg xmlns="http://www.w3.org/2000/svg" width="376.001" height="504" viewBox="0 0 376.001 504">
  <g id="_22-cocktail" data-name="22-cocktail" transform="translate(-68 -4)">
    <g id="linear_color" data-name="linear color">
      <path id="Path_942" data-name="Path 942" d="M442.208,73.691A12,12,0,0,0,432,68H387.72c-.114-.566-.252-1.125-.382-1.686C409.951,54.094,428,32.484,428,16A12,12,0,0,0,416,4h0a12,12,0,0,0-12,12c0,4.7-10.363,19.214-26.733,28.482a61.034,61.034,0,0,0-6.683-7.646A60.007,60.007,0,0,0,270.118,68H80A12,12,0,0,0,69.267,85.366a833.921,833.921,0,0,0,58.941,97.571c42.489,59.983,81.368,93.5,115.792,99.9V428.8c-13,19.726-69.756,44.453-103.8,55.812A12,12,0,0,0,144,508H368a12,12,0,0,0,3.8-23.384C337.756,473.257,281,448.53,268,428.8V282.842c34.424-6.41,73.3-39.922,115.792-99.9a833.908,833.908,0,0,0,58.941-97.571,12,12,0,0,0-.525-11.68ZM398.384,116H376.9a59.552,59.552,0,0,0,10.81-24h24.341C408.415,98.628,403.8,106.827,398.384,116ZM303.013,55a35.757,35.757,0,0,1,25.265-10.987C347.85,43.246,365.31,60.407,364.91,80a36,36,0,1,1-61.9-25ZM270.1,92a59.179,59.179,0,0,0,10.8,24H113.616c-5.414-9.173-10.031-17.372-13.667-24Zm36.72,392H205.181C228.5,472.8,245.322,462.064,256,451.528,266.678,462.064,283.5,472.8,306.819,484ZM256,260c-28.2,0-66.577-32.217-108.052-90.716-7-9.879-13.591-19.789-19.631-29.284H383.683c-6.04,9.5-12.627,19.4-19.631,29.284C322.577,227.783,284.2,260,256,260Z" fill="#f65a82"/>
      <circle id="Ellipse_330" data-name="Ellipse 330" cx="12" cy="12" r="12" transform="translate(280 160)" fill="#f65a82"/>
      <circle id="Ellipse_331" data-name="Ellipse 331" cx="12" cy="12" r="12" transform="translate(208 176)" fill="#f65a82"/>
      <circle id="Ellipse_332" data-name="Ellipse 332" cx="12" cy="12" r="12" transform="translate(248 208)" fill="#f65a82"/>
    </g>
  </g>
</svg>
