<svg xmlns="http://www.w3.org/2000/svg" width="440" height="445.371" viewBox="0 0 440 445.371">
  <g id="conference-hall" transform="translate(-2.686)">
    <g id="Group_817" data-name="Group 817">
      <path id="Path_847" data-name="Path 847" d="M83.2,388.629l.136-.312c2.311-5.006,6.526-8.812,12.534-11.33l19.052-8.773,1.01-.85q-1.089-1.251-2.121-2.578c-8.613-11.189-13.345-26.055-13.743-43.025l-2.639-1.2-9.821-8.293-15.781,15.7H69.991l-15.78-15.7-9.823,8.293-20.442,9.409c-3.025,1.245-6,3.128-7.51,6.4,0,0-22.22,52.9-10.167,52.9H82.932C83.082,388.914,83.174,388.693,83.2,388.629Z" fill="#ea3664"/>
      <path id="Path_848" data-name="Path 848" d="M34.043,264.328C34.4,297,52.658,316.471,70.909,316.471c15.593,0,36.51-19.47,36.867-52.143.226-22.666-10.57-36.238-36.867-36.238S33.813,241.662,34.043,264.328Z" fill="#ea3664"/>
      <path id="Path_849" data-name="Path 849" d="M197.729,376.986c6.184,2.588,10.563,6.609,12.675,11.664.023.051.11.266.261.617h24.042c.15-.354.243-.574.269-.639l.141-.312c2.306-5.006,6.523-8.812,12.526-11.33l19.057-8.773,1.01-.85q-1.094-1.251-2.124-2.578c-8.612-11.189-13.345-26.055-13.737-43.025l-2.638-1.2-9.821-8.293-15.787,15.7h-1.83l-15.785-15.7-9.821,8.293-2.642,1.207c-.422,16.494-5.673,31.793-14.87,43.2-.522.645-1.053,1.266-1.594,1.885l1.618,1.361Z" fill="#ea3664"/>
      <path id="Path_850" data-name="Path 850" d="M222.685,316.471c15.592,0,36.514-19.471,36.866-52.144.229-22.666-10.57-36.238-36.866-36.238s-37.092,13.572-36.864,36.238C186.172,297,204.435,316.471,222.685,316.471Z" fill="#ea3664"/>
      <path id="Path_851" data-name="Path 851" d="M428.936,336.365c-1.318-3.139-4.485-5.156-7.51-6.4l-20.443-9.409-9.822-8.293-15.779,15.7h-1.837l-15.779-15.7-9.822,8.293-2.641,1.207c-.425,16.494-5.676,31.793-14.878,43.2-.52.645-1.052,1.266-1.592,1.885l1.618,1.361,19.054,8.773c6.185,2.588,10.564,6.609,12.675,11.664.022.051.114.266.261.617h76.664C451.155,389.268,428.936,336.365,428.936,336.365Z" fill="#ea3664"/>
      <path id="Path_852" data-name="Path 852" d="M337.6,264.328c.354,32.673,18.616,52.143,36.866,52.143,15.593,0,36.512-19.47,36.865-52.143.229-22.666-10.569-36.238-36.865-36.238S337.364,241.662,337.6,264.328Z" fill="#ea3664"/>
      <path id="Path_853" data-name="Path 853" d="M193.759,386.061l-20.44-9.416L163.5,368.37l-15.78,15.691H145.88L130.1,368.37l-9.821,8.275-20.445,9.416c-3.024,1.236-6,3.117-7.508,6.406,0,0-22.221,52.9-10.168,52.9H211.439c12.052,0-10.167-52.9-10.167-52.9C199.953,389.312,196.787,387.3,193.759,386.061Z" fill="#ea3664"/>
      <path id="Path_854" data-name="Path 854" d="M146.795,284.193c-26.3,0-37.093,13.562-36.865,36.23.356,32.663,18.618,52.15,36.865,52.15,15.594,0,36.515-19.487,36.866-52.15C183.894,297.754,173.092,284.193,146.795,284.193Z" fill="#ea3664"/>
      <path id="Path_855" data-name="Path 855" d="M345.538,386.061l-20.445-9.416-9.82-8.275-15.782,15.691h-1.834L281.878,368.37l-9.824,8.275-20.439,9.416c-3.026,1.236-6,3.117-7.514,6.406,0,0-22.218,52.9-10.166,52.9H363.217c12.053,0-10.169-52.9-10.169-52.9C351.729,389.312,348.561,387.3,345.538,386.061Z" fill="#ea3664"/>
      <path id="Path_856" data-name="Path 856" d="M298.575,372.576c15.592,0,36.51-19.488,36.866-52.15.226-22.671-10.568-36.23-36.866-36.23s-37.1,13.561-36.864,36.23C262.061,353.087,280.321,372.576,298.575,372.576Z" fill="#ea3664"/>
      <path id="Path_857" data-name="Path 857" d="M209.917,140.722a3.786,3.786,0,0,0,3.971-.384l38.948-29.77a3.781,3.781,0,0,0,0-6.01L213.888,74.79a3.782,3.782,0,0,0-6.078,3v59.536A3.785,3.785,0,0,0,209.917,140.722Z" fill="#ea3664"/>
      <path id="Path_858" data-name="Path 858" d="M23.173,215.128H422.2a5.271,5.271,0,0,0,5.271-5.271V5.271A5.271,5.271,0,0,0,422.2,0H23.173A5.271,5.271,0,0,0,17.9,5.271V209.857A5.272,5.272,0,0,0,23.173,215.128ZM222.686,46.254a61.309,61.309,0,1,1-61.31,61.31A61.31,61.31,0,0,1,222.686,46.254Z" fill="#ea3664"/>
    </g>
  </g>
</svg>
