<svg xmlns="http://www.w3.org/2000/svg" width="24" height="24" viewBox="0 0 24 24"><defs><style>.a,.b{fill:#515151;}.a{opacity:0;}</style></defs><g transform="translate(0.391)"><g transform="translate(-0.391)"><rect class="a" width="24" height="24"/><path class="b" d="M12.048,2A10.048,10.048,0,1,0,22.1,12.048,10.048,10.048,0,0,0,12.048,2Zm0,18.086a8.038,8.038,0,1,1,8.038-8.038A8.038,8.038,0,0,1,12.048,20.086Z" transform="translate(-0.239 0.281)"/><path class="b" d="M14.394,11H8.913a.913.913,0,1,0,0,1.827h5.481a.913.913,0,0,0,0-1.827Z" transform="translate(0.155 0.415)"/><path class="b" d="M6.394,0H.913a.913.913,0,0,0,0,1.827H6.394A.913.913,0,1,0,6.394,0Z" transform="translate(12.722 8.675) rotate(90)"/></g></g></svg>