<svg xmlns="http://www.w3.org/2000/svg" width="491.862" height="512.003" viewBox="0 0 491.862 512.003">
  <g id="deck-chair" transform="translate(-10.07)">
    <path id="Path_918" data-name="Path 918" d="M420.983,365.66H299.39V204.986H459.377a15,15,0,0,0,15-15C474.376,85.228,389.149,0,284.39,0S94.4,85.228,94.4,189.986a15,15,0,0,0,15,15H269.39V365.66H172.978l-44.034-44.033a81.04,81.04,0,0,0-114.48,0,15,15,0,0,0,0,21.212l108.38,108.38a15.282,15.282,0,0,0-.594,1.756l-10.619,40.193a15,15,0,1,0,29,7.662L151,461.608h289.75V497a15,15,0,0,0,30,0V461.609h16.184a15,15,0,0,0,15-15,81.04,81.04,0,0,0-80.949-80.949Zm22.7-190.674H380.674c-1.643-43.274-10.374-83.681-25.008-115.072a170.843,170.843,0,0,0-9.343-17.437A160.362,160.362,0,0,1,443.679,174.986ZM222.457,42.477a170.843,170.843,0,0,0-9.343,17.437c-14.634,31.392-23.364,71.8-25.008,115.072H125.1A160.363,160.363,0,0,1,222.457,42.477ZM284.389,30h0c29.789,0,62.8,58.811,66.273,144.986H218.117C221.592,88.811,254.6,30,284.389,30ZM107.731,342.84l48.427,48.427a15,15,0,0,0,10.606,4.394H420.983a51.04,51.04,0,0,1,48.7,35.949H145.66L47.876,333.827a51.042,51.042,0,0,1,59.855,9.013Z" fill="#f65a82"/>
  </g>
</svg>
