<svg xmlns="http://www.w3.org/2000/svg" width="512" height="451.001" viewBox="0 0 512 451.001">
  <g id="distance" transform="translate(0 -30.5)">
    <path id="Path_913" data-name="Path 913" d="M291.638,213.2A7.5,7.5,0,1,0,281.031,223.8l9.7,9.7H221.274l9.7-9.7A7.5,7.5,0,1,0,220.364,213.2l-22.5,22.5a7.5,7.5,0,0,0,0,10.606l22.5,22.5A7.5,7.5,0,1,0,230.972,258.2l-9.7-9.7h69.454l-9.7,9.7A7.5,7.5,0,0,0,291.64,268.8l22.5-22.5a7.5,7.5,0,0,0,0-10.606Z" fill="#f65a82"/>
    <path id="Path_914" data-name="Path 914" d="M143.167,150.5H37.5A37.542,37.542,0,0,0,0,188a7.5,7.5,0,0,0,15,0,22.526,22.526,0,0,1,22.5-22.5H143.167a22.526,22.526,0,0,1,22.5,22.5V309.5c0,3.991-3.225,7-7.5,7s-7.5-3.009-7.5-7v-121a7.5,7.5,0,0,0-15,0V455.583c0,5.917-5.228,10.917-11.416,10.917a11.43,11.43,0,0,1-11.417-11.417V309a7.5,7.5,0,0,0-7.5-7.5h-30a7.5,7.5,0,0,0-7.5,7.5V455.083A11.43,11.43,0,0,1,56.417,466.5c-6.188,0-11.417-5-11.417-10.917V188.5a7.5,7.5,0,0,0-15,0V309a7.5,7.5,0,0,1-15,0V218a7.5,7.5,0,0,0-15,0v91a22.492,22.492,0,0,0,30,21.21V455.584C30,469.875,41.851,481.5,56.417,481.5a26.447,26.447,0,0,0,26.416-26.417V316.5h15V455.083A26.447,26.447,0,0,0,124.25,481.5c14.565,0,26.416-11.626,26.416-25.917v-125.3a23.531,23.531,0,0,0,7.5,1.213c12.617,0,22.5-9.664,22.5-22V188a37.542,37.542,0,0,0-37.5-37.5Z" fill="#f65a82"/>
    <path id="Path_915" data-name="Path 915" d="M90,135.5A52.5,52.5,0,1,0,37.505,83,52.56,52.56,0,0,0,90,135.5Zm0-90A37.5,37.5,0,1,1,52.5,83,37.542,37.542,0,0,1,90,45.5Z" fill="#f65a82"/>
    <path id="Path_916" data-name="Path 916" d="M474.5,150.5H368.834a37.542,37.542,0,0,0-37.5,37.5V309a22.492,22.492,0,0,0,30,21.21V455.584c0,14.291,11.851,25.917,26.416,25.917a26.447,26.447,0,0,0,26.417-26.417V316.5h15V455.083A26.447,26.447,0,0,0,455.583,481.5c14.566,0,26.417-11.626,26.417-25.917v-125.3a23.536,23.536,0,0,0,7.5,1.213c12.617,0,22.5-9.664,22.5-22V188a37.542,37.542,0,0,0-37.5-37.5Zm22.5,159c0,3.991-3.225,7-7.5,7s-7.5-3.009-7.5-7c0-.011,0-121,0-121a7.5,7.5,0,0,0-15,0V455.583c0,5.917-5.229,10.917-11.417,10.917a11.43,11.43,0,0,1-11.416-11.417V309a7.5,7.5,0,0,0-7.5-7.5h-30a7.5,7.5,0,0,0-7.5,7.5V455.083A11.43,11.43,0,0,1,387.75,466.5c-6.188,0-11.416-5-11.416-10.917V188.5a7.5,7.5,0,0,0-15,0V308.991a7.5,7.5,0,1,1-15,.009V188a22.526,22.526,0,0,1,22.5-22.5H474.5A22.526,22.526,0,0,1,497,188Z" fill="#f65a82"/>
    <path id="Path_917" data-name="Path 917" d="M421.338,135.5a52.5,52.5,0,1,0-52.5-52.5A52.56,52.56,0,0,0,421.338,135.5Zm0-90a37.5,37.5,0,1,1-37.5,37.5A37.542,37.542,0,0,1,421.338,45.5Z" fill="#f65a82"/>
  </g>
</svg>
