<svg xmlns="http://www.w3.org/2000/svg" width="276.961" height="289.386" viewBox="0 0 276.961 289.386">
  <g id="elevator-with-a-occupant" transform="translate(-6.212)">
    <g id="Group_854" data-name="Group 854">
      <g id="Group_846" data-name="Group 846">
        <path id="Path_895" data-name="Path 895" d="M151.046,89.61c-2.157-5.809-7.987-9.089-13.914-9.089-2.959,0-3.231.075-4.993.075H79.21c-6.768,0-11.754,3.206-13.91,9.014L39.706,167.442a12.739,12.739,0,0,0,7.358,16.351,12.538,12.538,0,0,0,16.189-7.431l6.8-18.32s.485-1.848.485,6.217V272.284a16.934,16.934,0,1,0,33.867,0V201.71a.537.537,0,0,1,.573-.624h6.359a.574.574,0,0,1,.593.624v70.573a16.934,16.934,0,1,0,33.866,0V164.258c0-8.2.711-5.611.711-5.611l6.579,17.715a12.538,12.538,0,0,0,16.189,7.431,12.738,12.738,0,0,0,7.359-16.351Z" fill="#ea3664"/>
        <ellipse id="Ellipse_327" data-name="Ellipse 327" cx="36.356" cy="35.983" rx="36.356" ry="35.983" transform="translate(72.153 0)" fill="#ea3664"/>
      </g>
      <g id="Group_849" data-name="Group 849">
        <g id="Group_848" data-name="Group 848">
          <g id="Group_847" data-name="Group 847">
            <path id="Path_896" data-name="Path 896" d="M23.212,282.384a7.021,7.021,0,0,1-7,7h-3a7.021,7.021,0,0,1-7-7V12.944a7.021,7.021,0,0,1,7-7h3a7.021,7.021,0,0,1,7,7Z" fill="#ea3664"/>
          </g>
        </g>
      </g>
      <g id="Group_852" data-name="Group 852">
        <g id="Group_851" data-name="Group 851">
          <g id="Group_850" data-name="Group 850">
            <path id="Path_897" data-name="Path 897" d="M210.132,282.384a7.019,7.019,0,0,1-7,7h-3a7.019,7.019,0,0,1-7-7V12.944a7.019,7.019,0,0,1,7-7h3a7.019,7.019,0,0,1,7,7Z" fill="#ea3664"/>
          </g>
        </g>
      </g>
      <g id="Group_853" data-name="Group 853">
        <path id="Path_898" data-name="Path 898" d="M282.4,118.007c1.734,2.808.451,5.105-2.848,5.105H237.217c-3.3,0-4.582-2.3-2.85-5.105l20.863-33.79c1.734-2.808,4.57-2.808,6.305,0Z" fill="#ea3664"/>
        <path id="Path_899" data-name="Path 899" d="M234.37,154.583c-1.732-2.808-.451-5.1,2.85-5.1h42.332c3.3,0,4.582,2.3,2.848,5.1l-20.861,33.79c-1.732,2.809-4.57,2.809-6.3,0Z" fill="#ea3664"/>
      </g>
    </g>
  </g>
</svg>
