<svg xmlns="http://www.w3.org/2000/svg" width="370.935" height="509.951" viewBox="0 0 370.935 509.951">
  <g id="flower_1_" data-name="flower (1)" transform="translate(-69.509 -0.002)">
    <path id="Path_919" data-name="Path 919" d="M424.448,185.609a54.611,54.611,0,0,0,0-77.232c-20.639-20.639-67.777-21.566-90.126-2.276,19.293-22.347,18.385-69.465-2.255-90.1a54.611,54.611,0,0,0-77.232,0A54.611,54.611,0,0,0,177.6,16c-21.327,21.327-21.045,70.952.282,92.279l.148.147-.25-.046C156.456,87.051,106.831,86.769,85.5,108.1a54.611,54.611,0,0,0,0,77.232,54.611,54.611,0,0,0,0,77.232c21.17,21.169,70.206,21.592,91.787.739-20.724,21.655-20.811,70.52.312,91.642a54.623,54.623,0,0,0,62.509,10.491V475.1a40.15,40.15,0,0,0-40.15-40.15h-34.85V469.8a40.149,40.149,0,0,0,40.15,40.149h99.7a40.15,40.15,0,0,0,40.15-40.149V434.953h-34.85a40.15,40.15,0,0,0-40.15,40.15V365.744a54.627,54.627,0,0,0,61.955-10.765c20.993-20.993,22-70.48.1-92.381l-.055-.1.055.055c21.327,21.327,70.952,21.608,92.279.282a54.61,54.61,0,0,0,0-77.231ZM323.976,254.366A97.278,97.278,0,0,1,186.24,254.3C98.148,159.35,229.492,28.641,324.034,116.512A97.342,97.342,0,0,1,323.976,254.366Z" fill="#f65a82"/>
    <path id="Path_920" data-name="Path 920" d="M254.835,117.918a67.572,67.572,0,0,0-67.223,67.493c3.71,89.532,131.3,89.537,135,0a67.564,67.564,0,0,0-67.777-67.492Z" fill="#f65a82"/>
  </g>
</svg>
