<svg xmlns="http://www.w3.org/2000/svg" viewBox="0 0 294.89 155.36"><defs><style>.cls-1{fill:#fff;}.cls-2{fill:#f43d4f;}.cls-3{fill:#133b53;}.cls-4{fill:#b72e41;}.cls-5{fill:#9bb8cc;}.cls-6{fill:#7bbfba;}.cls-7{fill:#479da3;}.cls-8{fill:#f7b857;}.cls-9{fill:#e59933;}</style></defs><g id="OBJECTS"><path class="cls-1" d="M10.76,41.66C14.49,35.1,20.6,33.4,31.13,37,29,32.2,35.37,22.73,45.55,32.76c-3.06-16.09,21.08-18,19.89-2.39,6-7.52,22-3.25,15.77,5.74,9.31-2.31,13.08-.15,19.2,5.55Z"/><path class="cls-1" d="M281.19,45.26H253.28c-1-3.6-.41-7.67,11-4.4C267.84,34.23,274.8,40.85,281.19,45.26Z"/><path class="cls-1" d="M271.16,23.59h-61C212,18,223.05,13.32,236.79,17.2c4-7.46,10.5-6.11,16.58,2.23C261.41,14.41,270.08,21.74,271.16,23.59Z"/><polygon class="cls-1" points="195.85 51.63 195.85 23.93 177.19 23.93 177.19 38.1 195.85 51.63"/><polygon class="cls-1" points="195.85 51.63 195.85 23.93 177.19 23.93 177.19 38.1 195.85 51.63"/><polygon class="cls-2" points="177.19 37.21 177.19 38.1 195.85 51.63 195.85 37.21 177.19 37.21"/><rect class="cls-3" x="179.63" y="26.26" width="1.46" height="3.38"/><rect class="cls-3" x="183.74" y="26.26" width="1.46" height="3.38"/><rect class="cls-3" x="187.84" y="26.26" width="1.46" height="3.38"/><rect class="cls-3" x="191.94" y="26.26" width="1.46" height="3.38"/><polygon class="cls-2" points="257.74 155.05 222.78 155.05 222.78 77.21 257.74 99.21 257.74 155.05"/><polygon class="cls-4" points="257.74 111.59 222.78 85.26 222.78 77.21 257.74 99.21 257.74 111.59"/><polygon class="cls-1" points="222.78 154.26 29.74 154.26 29.74 71.42 124.65 2.15 222.78 71.42 222.78 154.26"/><polygon class="cls-5" points="125.09 0.95 29.66 72.21 29.66 81.8 123.57 12.2 222.78 85.26 222.78 74.75 125.09 0.95"/><polygon class="cls-3" points="125.09 0 22.03 73.93 27.34 80.24 125.09 7.25 257.81 106.38 262.76 99.79 125.09 0"/><rect class="cls-4" x="222.78" y="90.45" width="13.44" height="0.75"/><rect class="cls-4" x="222.78" y="101.16" width="28.2" height="0.75"/><rect class="cls-4" x="222.78" y="111.86" width="34.96" height="0.75"/><rect class="cls-4" x="222.78" y="122.57" width="34.96" height="0.75"/><rect class="cls-4" x="222.78" y="133.27" width="34.96" height="0.75"/><rect class="cls-4" x="222.78" y="143.98" width="34.96" height="0.75"/><rect class="cls-3" x="222.78" y="151.69" width="49.82" height="3.17"/><polygon class="cls-5" points="95.29 80.18 96.39 80.18 96.39 43.11 95.76 43.11 95.29 80.18"/><rect class="cls-2" x="49.07" y="96.28" width="17.14" height="0.3"/><rect class="cls-2" x="185.24" y="96.28" width="17.14" height="0.3"/><polygon class="cls-5" points="45.91 96.58 45.91 103.21 49.07 103.12 49.07 96.58 45.91 96.58"/><polygon class="cls-5" points="205.54 96.58 202.38 96.58 202.38 98.67 205.54 98.58 205.54 96.58"/><polygon class="cls-5" points="66.21 96.58 66.21 102.62 116.64 101.16 116.64 96.58 66.21 96.58"/><polygon class="cls-5" points="133.79 96.58 133.79 100.66 185.24 99.17 185.24 96.58 133.79 96.58"/><rect class="cls-6" x="133.79" y="150.02" width="51.45" height="4.72"/><rect class="cls-6" x="133.79" y="150.02" width="51.45" height="4.72"/><rect class="cls-6" x="138.33" y="145.3" width="42.37" height="4.72"/><rect class="cls-7" x="138.33" y="149.23" width="42.37" height="0.79"/><rect class="cls-6" x="66.21" y="109.17" width="50.43" height="45.58"/><rect class="cls-7" x="66.21" y="111.21" width="50.43" height="0.75"/><rect class="cls-7" x="66.21" y="113.91" width="50.43" height="0.75"/><rect class="cls-7" x="66.21" y="116.62" width="50.43" height="0.75"/><rect class="cls-7" x="66.21" y="119.32" width="50.43" height="0.75"/><rect class="cls-7" x="66.21" y="122.02" width="50.43" height="0.75"/><rect class="cls-7" x="66.21" y="124.72" width="50.43" height="0.75"/><rect class="cls-7" x="66.21" y="127.42" width="50.43" height="0.75"/><rect class="cls-7" x="66.21" y="130.12" width="50.43" height="0.75"/><rect class="cls-7" x="66.21" y="132.82" width="50.43" height="0.75"/><rect class="cls-7" x="66.21" y="135.52" width="50.43" height="0.75"/><rect class="cls-7" x="66.21" y="138.23" width="50.43" height="0.75"/><rect class="cls-7" x="66.21" y="140.93" width="50.43" height="0.75"/><rect class="cls-7" x="66.21" y="143.63" width="50.43" height="0.75"/><rect class="cls-7" x="66.21" y="146.33" width="50.43" height="0.75"/><rect class="cls-7" x="66.21" y="149.03" width="50.43" height="0.75"/><rect class="cls-7" x="66.21" y="151.73" width="50.43" height="0.75"/><rect class="cls-3" x="66.21" y="107.17" width="50.43" height="2"/><path class="cls-7" d="M30.9,154.86H1.71a5,5,0,0,1,2.68-3.25,5.58,5.58,0,0,1,4.08-.06c-.24-.08-.57-.59-.75-.8A3.44,3.44,0,0,1,6.89,149a3.19,3.19,0,0,1,.52-2.22,3.23,3.23,0,0,1,3.09-1.28l.17,0a2.78,2.78,0,0,1,.64.19,7.23,7.23,0,0,1,2.37,1.88,4,4,0,0,1,.37.45,10.87,10.87,0,0,1-2.34-3.18c-1.65-3.9,1.84-9.56,6.17-7.95a9.3,9.3,0,0,1,4.1,4.58c-3.46-5.94,2.29-9.55,4.33-4.2-1.26-4.41.62-9,4.43-6.44a.8.8,0,0,0,.16.08Z"/><path class="cls-6" d="M30.9,154.86H13.7a2.92,2.92,0,0,1,1.58-1.92,3.34,3.34,0,0,1,2.41,0,2,2,0,0,1,.91-2.45,2.59,2.59,0,0,1,2.37.38A3.28,3.28,0,0,1,19.59,149c-1-2.29,1.09-5.63,3.64-4.68a5.46,5.46,0,0,1,2.42,2.7c-2-3.5,1.34-5.63,2.54-2.48-1.17-3.44,1.09-5.47,2.71-4.69Z"/><path class="cls-7" d="M13.06,136a1.52,1.52,0,0,0,1.13.42,2.49,2.49,0,0,0-.54-1.31,1.51,1.51,0,0,0-1.13-.42A2.49,2.49,0,0,0,13.06,136Z"/><path class="cls-6" d="M26.33,141.56a1.92,1.92,0,0,0,1.08.92,3,3,0,0,0-.16-1.65,1.92,1.92,0,0,0-1.08-.92A3.08,3.08,0,0,0,26.33,141.56Z"/><path class="cls-7" d="M14.47,134.15a3.74,3.74,0,0,0,.26,2,3,3,0,0,0,1-1.63,3.69,3.69,0,0,0-.26-2A3,3,0,0,0,14.47,134.15Z"/><polygon class="cls-3" points="271.93 146.55 272.29 137.26 272.94 137.26 273.36 146.37 271.93 146.55"/><polygon class="cls-8" points="275.3 154.75 270.05 154.75 269.02 146.55 276.33 146.55 275.3 154.75"/><polygon class="cls-8" points="268.49 145.27 268.73 148.12 276.5 148.24 276.91 145.16 268.49 145.27"/><polygon class="cls-9" points="269.17 148.13 276.12 148.24 276.08 148.51 269.36 149.32 269.17 148.13"/><path class="cls-6" d="M271.8,124.26a1.68,1.68,0,0,1-.81.77,1.42,1.42,0,1,1,.81-.77Z"/><path class="cls-6" d="M270,123.61a2.32,2.32,0,0,1,.47,1.46,2,2,0,0,1-1.86-2.13A2.35,2.35,0,0,1,270,123.61Z"/><path class="cls-6" d="M279.07,137.28a1.64,1.64,0,0,1-1.06-.36,1.7,1.7,0,0,1,1-.52,1.74,1.74,0,0,1,1.06.36A1.75,1.75,0,0,1,279.07,137.28Z"/><path class="cls-6" d="M278.79,135.35a2.35,2.35,0,0,1-1.07,1.11,2,2,0,0,1,1-2.64A2.3,2.3,0,0,1,278.79,135.35Z"/><path class="cls-6" d="M281.86,131.77a8.56,8.56,0,0,0-4.37-5.55,10.51,10.51,0,0,0-6.81-.8c-3.47.63-6.4,2.33-7.27,6a13.75,13.75,0,0,0,.47,7.78,7.3,7.3,0,0,0,5.16,4.28c2.8.58,6.28.47,8.73-1.14a13.43,13.43,0,0,0,2.46-2,7.44,7.44,0,0,0,1.73-4A11.3,11.3,0,0,0,281.86,131.77Z"/><polygon class="cls-3" points="269.98 137.94 267.99 135.72 265.88 135.6 265.88 135.4 267.59 135.28 265.88 133.18 266.26 132.75 270.72 136.67 269.98 137.94"/><polygon class="cls-3" points="273.65 132.67 275.84 131.21 276.2 129.8 276.31 129.84 276.28 130.88 276.77 130.52 276.91 130.8 274.31 133.58 273.65 132.67"/><rect class="cls-1" x="236.73" y="114.01" width="21.01" height="21.26"/><rect class="cls-3" x="238.54" y="115.8" width="19.2" height="17.68"/><polygon class="cls-4" points="236.73 114 235.06 114 235.06 137.02 257.74 137.02 257.74 135.27 236.73 135.27 236.73 114"/><rect class="cls-1" x="96.39" y="43.11" width="28.83" height="37.08"/><rect class="cls-3" x="98.26" y="44.78" width="11.46" height="33.44"/><rect class="cls-3" x="111.82" y="44.78" width="11.46" height="33.44"/><rect class="cls-1" x="125.05" y="43.11" width="28.83" height="37.08"/><rect class="cls-3" x="126.93" y="44.78" width="11.46" height="33.44"/><rect class="cls-3" x="140.48" y="44.78" width="11.46" height="33.44"/><rect class="cls-1" x="97.49" y="51.47" width="55.7" height="0.92"/><polygon class="cls-5" points="170.93 106.96 148.1 107.96 148.1 106.38 170.93 106.38 170.93 106.96"/><rect class="cls-5" x="147.44" y="105.45" width="1.05" height="39.86" transform="translate(295.94 250.75) rotate(180)"/><rect class="cls-5" x="170.53" y="105.45" width="1.05" height="39.86" transform="translate(342.12 250.75) rotate(180)"/><rect class="cls-3" x="151.91" y="133.59" width="15.2" height="8.92"/><path class="cls-3" d="M167.11,131.77v-20h-2.53a6.29,6.29,0,0,0-10.13,0h-2.54v20Z"/><rect class="cls-3" x="144.27" y="104.21" width="30.48" height="2.17"/><rect class="cls-6" x="51.26" y="71.32" width="6.25" height="8.54"/><rect class="cls-6" x="86.59" y="71.32" width="6.25" height="8.54"/><rect class="cls-6" x="157.26" y="71.32" width="6.25" height="8.54"/><rect class="cls-6" x="121.93" y="71.32" width="6.25" height="8.54"/><rect class="cls-6" x="192.6" y="71.32" width="6.25" height="8.54"/><rect class="cls-7" x="51.26" y="71.32" width="6.25" height="1"/><rect class="cls-7" x="86.59" y="71.32" width="6.25" height="1"/><rect class="cls-7" x="157.26" y="71.32" width="6.25" height="1"/><rect class="cls-7" x="121.93" y="71.32" width="6.25" height="1"/><rect class="cls-7" x="192.6" y="71.32" width="6.25" height="1"/><rect class="cls-6" x="50.09" y="70.32" width="149.74" height="1"/><rect class="cls-3" x="209.09" y="110.74" width="7.13" height="12.51"/><polygon class="cls-5" points="208.09 109.63 208.09 124.2 217.5 124.2 217.5 124.72 207.67 124.72 207.67 109.63 208.09 109.63"/><rect class="cls-3" x="35.79" y="110.74" width="7.13" height="12.51"/><polygon class="cls-5" points="34.79 109.63 34.79 124.2 44.19 124.2 44.19 124.72 34.37 124.72 34.37 109.63 34.79 109.63"/><path class="cls-3" d="M124.51,32.7V25.48a7.69,7.69,0,0,0-4.93,2.28Z"/><path class="cls-3" d="M118.94,28.51a7.56,7.56,0,0,0-1.56,4.61h6.18Z"/><path class="cls-3" d="M130.21,27.46a7.66,7.66,0,0,0-4.72-2v6.71Z"/><path class="cls-3" d="M125.92,33.13h6.81a7.64,7.64,0,0,0-1.84-5C129.23,29.82,127.58,31.48,125.92,33.13Z"/><path class="cls-5" d="M133.83,34.34h-18v0a10.48,10.48,0,0,1,2.57-6.93C114.84,30.17,115,35,115,35h18.79Z"/><polygon class="cls-3" points="22.07 154.75 16.9 154.75 17.88 141.3 21.09 141.3 22.07 154.75"/><rect class="cls-3" x="18.64" y="96.58" width="1.69" height="58.17"/><polygon class="cls-3" points="22.16 96.58 16.82 96.58 14.86 86.91 24.11 86.91 22.16 96.58"/><polygon class="cls-1" points="21.17 94.79 17.81 94.79 16.57 88.7 22.4 88.7 21.17 94.79"/><polygon class="cls-3" points="22.16 84.45 16.82 84.45 14.86 86.91 24.11 86.91 22.16 84.45"/><path class="cls-3" d="M22.56,96.58H16.43a.5.5,0,0,1-.5-.5h0a.5.5,0,0,1,.5-.5h6.13a.5.5,0,0,1,.5.5h0A.51.51,0,0,1,22.56,96.58Z"/><path class="cls-3" d="M21.16,141.8H17.82a.5.5,0,0,1-.5-.5h0a.5.5,0,0,1,.5-.5h3.34a.51.51,0,0,1,.51.5h0A.5.5,0,0,1,21.16,141.8Z"/><circle class="cls-3" cx="19.49" cy="84.45" r="1.45"/><polygon class="cls-3" points="289.48 154.75 284.31 154.75 285.29 141.3 288.5 141.3 289.48 154.75"/><rect class="cls-3" x="286.05" y="96.58" width="1.69" height="58.17"/><polygon class="cls-3" points="289.57 96.58 284.23 96.58 282.27 86.91 291.53 86.91 289.57 96.58"/><polygon class="cls-1" points="288.58 94.79 285.22 94.79 283.99 88.7 289.81 88.7 288.58 94.79"/><polygon class="cls-3" points="289.57 84.45 284.23 84.45 282.27 86.91 291.53 86.91 289.57 84.45"/><path class="cls-3" d="M290,96.58h-6.13a.51.51,0,0,1-.5-.5h0a.5.5,0,0,1,.5-.5H290a.5.5,0,0,1,.5.5h0A.51.51,0,0,1,290,96.58Z"/><path class="cls-3" d="M288.58,141.8h-3.35a.5.5,0,0,1-.5-.5h0a.51.51,0,0,1,.5-.5h3.35a.51.51,0,0,1,.5.5h0A.5.5,0,0,1,288.58,141.8Z"/><circle class="cls-3" cx="286.9" cy="84.45" r="1.45"/><rect class="cls-3" y="154.36" width="294.89" height="1"/><polygon class="cls-2" points="49.07 96.58 49.07 103.12 47.84 154.75 66.21 154.75 66.21 102.62 66.21 96.58 49.07 96.58"/><polygon class="cls-2" points="185.24 96.58 185.24 99.17 185.24 154.75 203.92 154.75 202.38 98.67 202.38 96.58 185.24 96.58"/><polygon class="cls-2" points="116.64 96.58 116.64 101.16 116.64 155.05 133.79 155.05 133.79 100.66 133.79 96.58 116.64 96.58"/><polygon class="cls-4" points="49.07 96.58 49.07 96.81 49.07 98.61 66.21 98.61 66.21 96.79 66.21 96.58 49.07 96.58"/><polygon class="cls-4" points="185.24 96.58 185.24 96.67 185.24 98.61 202.38 98.61 202.38 96.65 202.38 96.58 185.24 96.58"/><polygon class="cls-4" points="116.64 96.58 116.64 96.74 116.64 98.62 133.79 98.62 133.79 96.72 133.79 96.58 116.64 96.58"/><polygon class="cls-3" points="205.54 96.58 45.91 96.58 45.21 79.44 205.54 79.85 205.54 96.58"/></g></svg>