<svg id="iron" xmlns="http://www.w3.org/2000/svg" width="512" height="512" viewBox="0 0 512 512">
  <path id="Path_846" data-name="Path 846" d="M512,163.87a52.021,52.021,0,0,0-52.009-52.01h-80.97a48.43,48.43,0,1,1,0-96.86H504.5a7.5,7.5,0,1,0,0-15H379.02a63.43,63.43,0,0,0,0,126.86h80.97a37.015,37.015,0,0,1,28.453,60.684l-22.3,26.822a22.515,22.515,0,0,0-23.282,5.311l-9.058,9.058c-20.32-.42-43.1,3.94-62.821,7.427a7.5,7.5,0,1,0,2.612,14.77,572.575,572.575,0,0,1,57.809-7.185,16.52,16.52,0,0,1,16.985,11.78c1.827,6.27,47.027,160.167,48.533,166.575a2.778,2.778,0,0,1-2.912,3.66c-22.786,0-41.042,15.66-48.464,36.488H125.169a7.5,7.5,0,1,0,0,15H452.956a9.875,9.875,0,1,1,0,19.75H16.049a27.3,27.3,0,0,1,26.2-19.75H95.168a7.5,7.5,0,1,0,0-15H50.224c62.462-111.6,171.9-177.027,294.778-205.486a7.5,7.5,0,1,0-3.385-14.613c-71.632,16.6-143.593,47.051-201.473,92.606l-10.071-10.07a22.494,22.494,0,1,0-31.826,31.8l8.051,8.051a419.229,419.229,0,0,0-74.042,98.92A42.317,42.317,0,0,0,0,504.5,7.5,7.5,0,0,0,7.5,512H452.955a24.875,24.875,0,0,0,8.451-48.27c5.263-13.573,17.9-22.969,32.6-22.969,11.483,0,20.3-11.4,17.411-22.51-.018-.071-.038-.142-.058-.211L465.5,260.649l9.163-9.156a22.628,22.628,0,0,0,3.2-27.762l22.115-26.593A52.106,52.106,0,0,0,512,163.87ZM108.854,335.283a7.479,7.479,0,0,1,10.6,0l9.014,9.014q-5.737,4.865-11.274,9.922l-8.344-8.344a7.5,7.5,0,0,1,0-10.593Zm355.2-94.4-3.986,3.983a31.618,31.618,0,0,0-10.233-10.961l3.619-3.619a7.494,7.494,0,1,1,10.6,10.6ZM248.294,335.649a43.515,43.515,0,0,0,21.145,81.569c.94,0,151.08-9.838,151.08-9.838a23.386,23.386,0,0,0,21.194-28.86L422.175,298.2a23.3,23.3,0,0,0-27.693-17.329,532.593,532.593,0,0,0-146.188,54.781ZM355.56,396.618l-67.43,4.433V383.37a.447.447,0,0,1,.44-.44h66.55a.44.44,0,0,1,.44.44Zm42.071-101.085a8.652,8.652,0,0,1,1.823-.2,8.352,8.352,0,0,1,8.145,6.4l19.538,80.323a8.387,8.387,0,0,1-7.6,10.348l-48.974,3.219V383.37a15.457,15.457,0,0,0-15.44-15.44H288.57a15.458,15.458,0,0,0-15.44,15.44v18.667l-1.85.122a28.516,28.516,0,0,1-15.722-53.387,517.562,517.562,0,0,1,142.073-53.239Z" fill="#ea3664"/>
</svg>
