<svg id="_015---Lifts" data-name="015---Lifts" xmlns="http://www.w3.org/2000/svg" width="345.298" height="450.389" viewBox="0 0 345.298 450.389">
  <path id="Shape" d="M0,43.519V291.233a22.52,22.52,0,0,0,22.519,22.519H322.779A22.519,22.519,0,0,0,345.3,291.233V43.519A22.519,22.519,0,0,0,322.779,21H22.519A22.52,22.52,0,0,0,0,43.519Zm330.285,0V291.233a7.506,7.506,0,0,1-7.506,7.507H22.519a7.506,7.506,0,0,1-7.506-7.507V43.519a7.506,7.506,0,0,1,7.506-7.507H322.779A7.506,7.506,0,0,1,330.285,43.519Z" transform="translate(0 136.636)" fill="#ea3664"/>
  <path id="Shape-2" data-name="Shape" d="M81.172,4.4a15.013,15.013,0,0,0-21.228,0L7.4,56.941A15.013,15.013,0,0,0,18,82.569H33.011v45.039A15.013,15.013,0,0,0,48.024,142.62H93.062a15.013,15.013,0,0,0,15.013-15.013V82.569h15.013A15.013,15.013,0,0,0,133.7,56.941Zm41.969,63.16H100.569a7.506,7.506,0,0,0-7.506,7.506v52.545H48.024V75.062a7.506,7.506,0,0,0-7.506-7.506H18L70.543,15.01l52.583,52.545Z" transform="translate(19.535 0.003)" fill="#ea3664"/>
  <path id="Shape-3" data-name="Shape" d="M115.075,0H70.037A15.013,15.013,0,0,0,55.024,15.013V60.052H40.011A15.013,15.013,0,0,0,29.4,85.679l52.545,52.545a15.013,15.013,0,0,0,21.228,0l52.545-52.545A15.013,15.013,0,0,0,145.1,60.052H130.088V15.013A15.013,15.013,0,0,0,115.075,0ZM145.1,75.065,92.556,127.61,40.011,75.065H62.53a7.506,7.506,0,0,0,7.506-7.506V15.013h45.039V67.558a7.506,7.506,0,0,0,7.506,7.506Z" transform="translate(162.665)" fill="#ea3664"/>
  <path id="Shape-4" data-name="Shape" d="M26.519,174.13a22.264,22.264,0,0,0,7.506-1.381v76.446a22.632,22.632,0,0,0,22.519,22.519,22.347,22.347,0,0,0,15.013-5.878,22.039,22.039,0,0,0,15.013,5.878,22.519,22.519,0,0,0,22.519-22.519V172.749a22.263,22.263,0,0,0,7.506,1.381,22.519,22.519,0,0,0,22.519-22.519V121.584a37.495,37.495,0,0,0-37.532-37.532h-.2a37.142,37.142,0,0,0,7.7-22.519,37.532,37.532,0,0,0-75.065,0,37.142,37.142,0,0,0,7.7,22.519h-.2A37.578,37.578,0,0,0,4,121.584V151.61A22.519,22.519,0,0,0,26.519,174.13Zm22.519-112.6A22.519,22.519,0,1,1,71.558,84.052,22.519,22.519,0,0,1,49.039,61.532ZM19.013,121.584A22.52,22.52,0,0,1,41.532,99.065h60.052A22.474,22.474,0,0,1,124.1,121.584V151.61a7.506,7.506,0,0,1-15.013,0V121.584a7.506,7.506,0,1,0-15.013,0v127.61a7.506,7.506,0,0,1-7.506,7.506,7.311,7.311,0,0,1-5.345-2.3,7.184,7.184,0,0,1-2.162-5.21V174.13a7.506,7.506,0,0,0-15.013,0v75.065a7.506,7.506,0,0,1-7.506,7.506,7.311,7.311,0,0,1-5.345-2.3,7.184,7.184,0,0,1-2.162-5.21V121.584a7.506,7.506,0,1,0-15.013,0V151.61a7.506,7.506,0,0,1-15.013,0Z" transform="translate(26.026 156.156)" fill="#ea3664"/>
  <path id="Shape-5" data-name="Shape" d="M46.519,174.13a22.264,22.264,0,0,0,7.506-1.381v76.446a22.632,22.632,0,0,0,22.519,22.519,22.347,22.347,0,0,0,15.013-5.878,22.039,22.039,0,0,0,15.013,5.878,22.519,22.519,0,0,0,22.519-22.519V172.749a22.263,22.263,0,0,0,7.507,1.381,22.519,22.519,0,0,0,22.519-22.519V121.584a37.495,37.495,0,0,0-37.532-37.532h-.2a37.142,37.142,0,0,0,7.7-22.519,37.532,37.532,0,0,0-75.065,0,37.142,37.142,0,0,0,7.7,22.519h-.2A37.578,37.578,0,0,0,24,121.584V151.61A22.519,22.519,0,0,0,46.519,174.13Zm22.519-112.6A22.519,22.519,0,1,1,91.558,84.052,22.519,22.519,0,0,1,69.039,61.532ZM39.013,121.584A22.519,22.519,0,0,1,61.532,99.065h60.052A22.474,22.474,0,0,1,144.1,121.584V151.61a7.506,7.506,0,0,1-15.013,0V121.584a7.506,7.506,0,1,0-15.013,0v127.61a7.506,7.506,0,0,1-7.506,7.506,7.311,7.311,0,0,1-5.345-2.3,7.184,7.184,0,0,1-2.162-5.21V174.13a7.506,7.506,0,0,0-15.013,0v75.065a7.506,7.506,0,0,1-7.506,7.506,7.311,7.311,0,0,1-5.345-2.3,7.184,7.184,0,0,1-2.162-5.21V121.584a7.506,7.506,0,1,0-15.013,0V151.61a7.506,7.506,0,0,1-15.013,0Z" transform="translate(156.156 156.156)" fill="#ea3664"/>
</svg>
