<svg xmlns="http://www.w3.org/2000/svg" width="511.988" height="512" viewBox="0 0 511.988 512">
  <g id="meditation" transform="translate(-0.006)">
    <g id="Group_831" data-name="Group 831">
      <g id="Group_830" data-name="Group 830">
        <circle id="Ellipse_323" data-name="Ellipse 323" cx="63.999" cy="63.999" r="63.999" transform="translate(191.996 0)" fill="#8b8b8b"/>
      </g>
    </g>
    <g id="Group_833" data-name="Group 833">
      <g id="Group_832" data-name="Group 832">
        <path id="Path_874" data-name="Path 874" d="M380.385,465.7,301.57,495.26l39.194,14.7a32,32,0,0,0,41.2-18.733A31.642,31.642,0,0,0,380.385,465.7Z" fill="#8b8b8b"/>
      </g>
    </g>
    <g id="Group_835" data-name="Group 835">
      <g id="Group_834" data-name="Group 834">
        <path id="Path_875" data-name="Path 875" d="M107.238,354.024a32,32,0,1,0-22.469,59.935L119.292,426.9l91.143-34.183Z" fill="#8b8b8b"/>
      </g>
    </g>
    <g id="Group_837" data-name="Group 837">
      <g id="Group_836" data-name="Group 836">
        <path id="Path_876" data-name="Path 876" d="M445.964,372.758a32.091,32.091,0,0,0-41.2-18.733l-255.995,96a32,32,0,1,0,22.468,59.935l255.995-96A32.014,32.014,0,0,0,445.964,372.758Z" fill="#8b8b8b"/>
      </g>
    </g>
    <g id="Group_839" data-name="Group 839">
      <g id="Group_838" data-name="Group 838">
        <path id="Path_877" data-name="Path 877" d="M480,255.995H403.779l-55.155-110.31A32,32,0,0,0,319.215,128H192.782a32.01,32.01,0,0,0-29.4,17.687l-55.155,110.31H32.005a32,32,0,1,0,0,64h96a31.994,31.994,0,0,0,28.624-17.687L192,231.558v120.08l64,24,64-24V231.558l35.374,70.748A31.994,31.994,0,0,0,384,319.993h96a32,32,0,0,0,0-64Z" fill="#8b8b8b"/>
      </g>
    </g>
  </g>
</svg>
