<svg id="no-smoking" xmlns="http://www.w3.org/2000/svg" width="512" height="450" viewBox="0 0 512 450">
  <path id="Path_798" data-name="Path 798" d="M392,432.566,86.4,0,62,17.434,367.6,450Zm0,0" fill="#ea3664"/>
  <path id="Path_799" data-name="Path 799" d="M0,180H122v90H0Zm0,0" fill="#ea3664"/>
  <path id="Path_800" data-name="Path 800" d="M452,180h60v90H452Zm0,0" fill="#ea3664"/>
  <path id="Path_801" data-name="Path 801" d="M467,90H422a30,30,0,0,0-30-30H272a30,30,0,0,0,0,60h60a30,30,0,0,0,30,30H512V135A45,45,0,0,0,467,90Zm0,0" fill="#ea3664"/>
  <path id="Path_802" data-name="Path 802" d="M422,180H250.3l63.582,90H422Zm0,0" fill="#ea3664"/>
  <path id="Path_803" data-name="Path 803" d="M152,196.816V270h51.7Zm0,0" fill="#ea3664"/>
</svg>
