<?xml version="1.0" encoding="UTF-8"?>
<svg width="127px" height="19px" viewBox="0 0 127 19" version="1.1" xmlns="http://www.w3.org/2000/svg" xmlns:xlink="http://www.w3.org/1999/xlink">
    <!-- Generator: Sketch 58 (84663) - https://sketch.com -->
    <title>v4_mark_dark_S_16px</title>
    <desc>Created with Sketch.</desc>
    <defs>
        <polygon id="path-1" points="0 0 24.8530559 0 24.8530559 15.6301448 0 15.6301448"></polygon>
    </defs>
    <g id="Page-1" stroke="none" stroke-width="1" fill="none" fill-rule="evenodd">
        <g id="v3_MC,VISA,AMEX" transform="translate(-707.000000, -1652.000000)">
            <g id="S_16px_dark" transform="translate(707.000000, 1652.000000)">
                <g id="v4_mark_dark_S_16px">
                    <g id="UI-icon/SRC/dark" transform="translate(0.000000, 1.500000)">
                        <g id="SRC_icon_black">
                            <mask id="mask-2" fill="white">
                                <use xlink:href="#path-1"></use>
                            </mask>
                            <g id="path-1"></g>
                            <path d="M24.6489901,7.31547256 L18.6943407,0.357488567 C18.5687691,0.151219512 18.3417302,0.0134527439 18.0825838,0.0134527439 C17.6873857,0.0134527439 17.3669779,0.333765244 17.3669779,0.729058689 C17.3669779,0.937328506 17.4560595,1.12482851 17.5981136,1.25564024 L22.9925495,7.79527439 L17.6580412,14.2106707 L17.076391,14.2106707 L15.3535442,14.2106707 L20.3948933,8.3447218 C20.3981326,8.34110137 20.4010861,8.33748095 20.4042302,8.33386052 L20.4052782,8.33424162 C20.5457127,8.1798971 20.6082127,7.99954268 20.604878,7.82176067 C20.6082127,7.64407393 20.5457127,7.46371951 20.4052782,7.309375 L20.4042302,7.30966082 C20.4010861,7.3060404 20.3981326,7.30241997 20.3948933,7.29889482 L14.3748857,0.36882622 C14.3735518,0.367206555 14.372218,0.36558689 14.3707889,0.363967226 C14.24617,0.154077744 14.0171303,0.0134527439 13.7554116,0.0134527439 L9.52741997,0.0134527439 C9.1322218,0.0134527439 8.81181402,0.333765244 8.81181402,0.729058689 C8.81181402,0.849009146 8.82820122,0.973723323 8.89375,1.06147104 L14.4967416,7.84834223 L9.72139863,13.5774771 C9.69300686,13.6058689 9.28151677,14.1922828 8.55800305,14.1922828 L2.85478277,14.1922828 C2.07915396,14.1922828 1.43595655,13.5870046 1.43595655,12.782984 L1.43595655,2.85167683 C1.43595655,2.15179116 2.07915396,1.43294588 2.87231326,1.43294588 L6.42042683,1.43294588 C6.8386814,1.43294588 7.13603277,1.14731326 7.13603277,0.729058689 C7.13603277,0.310804116 6.8386814,-7.62195122e-05 6.42042683,-7.62195122e-05 L2.83753811,0.0141196646 C1.14022485,0.0141196646 -1.9054878e-05,1.41398628 -1.9054878e-05,2.83709985 L-1.9054878e-05,12.782984 C-1.9054878e-05,14.315282 1.35087652,15.6204459 2.83753811,15.6204459 L8.53913872,15.6204459 C8.82667683,15.6204459 9.08972942,15.5783346 9.32658155,15.5108803 C9.36040396,15.5012576 9.39375,15.4910633 9.42642912,15.4804878 C10.2125381,15.2257241 10.6870046,14.7022866 10.7788491,14.5913872 L16.1530869,8.32804878 C16.407279,8.0396532 16.4411014,7.62139863 16.157279,7.309375 L16.1562309,7.30966082 C16.1530869,7.3060404 16.1501334,7.30241997 16.1469893,7.29889482 L11.0634337,1.43294588 L12.828487,1.43294588 L13.4101372,1.43294588 L18.7226372,7.82185595 L13.1322218,14.565282 C13.1304116,14.5672828 13.1338415,14.5730945 13.1417492,14.5821456 C13.0895389,14.6815168 13.0598133,14.7945122 13.0598133,14.9145579 C13.0598133,15.3097561 13.380221,15.6301639 13.7753239,15.6301639 L18.0033155,15.6301639 C18.2651296,15.6301639 18.4939787,15.4893483 18.6187881,15.2795541 C18.620122,15.2779345 18.6214558,15.2763148 18.6227896,15.2747904 L24.6428925,8.3447218 C24.6460366,8.34110137 24.6489901,8.33748095 24.6521341,8.33386052 L24.6531822,8.33424162 C24.9369093,8.02212271 24.9031822,7.60386814 24.6489901,7.31547256" id="Fill-1" fill="#000000" fill-rule="nonzero" mask="url(#mask-2)"></path>
                        </g>
                    </g>
                    <g id="UI-Networks/Visa/dark" transform="translate(97.000000, 4.500000)" fill="#1A1F71">
                        <g id="Visa-Brand-Mark-Blue">
                            <path d="M11.350468,0.242481203 L7.44499003,9.75422932 L4.89703851,9.75422932 L2.97606261,2.16259398 C2.85867731,1.69454887 2.75786405,1.52396617 2.40294614,1.32659774 C1.82430566,1.00516917 0.867270216,0.704887218 0.0248580635,0.517387218 L0.0828602118,0.241071429 L4.18444069,0.241071429 C4.70646003,0.241071429 5.17738223,0.596334586 5.29614853,1.21099624 L6.31118613,6.71616541 L8.81908854,0.242481203 L11.350468,0.242481203 Z M21.3337425,6.64849624 C21.3434095,4.13768797 17.9323308,3.99953008 17.9558079,2.8787594 C17.9627129,2.53759398 18.2817247,2.17528195 18.9777505,2.08223684 C19.3230014,2.03571429 20.2745128,2.00046992 21.3544576,2.50798872 L21.7770447,0.490601504 C21.1970232,0.274906015 20.4512813,0.0690789474 19.5218659,0.0690789474 C17.1396348,0.0690789474 15.4630965,1.36184211 15.4479055,3.21428571 C15.4327144,4.58317669 16.6452355,5.34727444 17.5580789,5.80263158 C18.4971613,6.26926692 18.8120301,6.5681391 18.8078871,6.98402256 C18.8023631,7.62265038 18.0593832,7.90319549 17.3661194,7.91447368 C16.1535983,7.93421053 15.4506675,7.58035714 14.8899801,7.31390977 L14.4535829,9.39755639 C15.0170324,9.66118421 16.055547,9.89097744 17.1341108,9.90225564 C19.6696333,9.90225564 21.3254565,8.625 21.3337425,6.64849624 L21.3337425,6.64849624 Z M27.6242136,9.75422932 L29.8531533,9.75422932 L27.9073193,0.242481203 L25.8496241,0.242481203 C25.3869879,0.242481203 24.9975449,0.517387218 24.8235384,0.940319549 L21.2080712,9.75422932 L23.7394507,9.75422932 L24.242136,8.33317669 L27.3342029,8.33317669 L27.6242136,9.75422932 Z M24.9353997,6.38345865 L26.204542,2.81109023 L26.9350928,6.38345865 L24.9353997,6.38345865 Z M14.7946908,0.242481203 L12.8019027,9.75422932 L10.3920516,9.75422932 L12.3862207,0.242481203 L14.7946908,0.242481203 Z" id="Shape" fill-rule="nonzero"></path>
                        </g>
                    </g>
                    <g id="UI-Networks/AMEX" transform="translate(72.000000, 0.000000)">
                        <g id="Amex-500x500@1x">
                            <rect id="Rectangle" fill="#FFFFFF" fill-rule="nonzero" x="0" y="0" width="18.9501312" height="18.9501312"></rect>
                            <path d="M0,0 L0,18.9501312 L18.9501312,18.9501312 L18.9501312,15.9474071 L16.6639495,15.9474071 L15.486919,14.6459121 L14.3039381,15.9474071 L6.76622016,15.9474071 L6.76622016,9.88162173 L4.33336441,9.88162173 L7.35105911,3.05229764 L10.2613445,3.05229764 L11.3002286,5.39191874 L11.3002286,3.05229764 L14.9026106,3.05229764 L15.5280786,4.81530415 L16.1576399,3.05229764 L18.9501312,3.05229764 L18.9501312,0 L0,0 Z M16.7226949,3.811781 L15.5331952,7.11490257 L14.3513513,3.811781 L12.0860905,3.811781 L12.0860905,9.11508892 L13.5179624,9.11508892 L13.5179624,5.40275822 L14.8817655,9.11508892 L16.1544563,9.11508892 L17.5181456,5.39510236 L17.5181456,9.11508892 L18.9501312,9.11508892 L18.9501312,3.811781 L16.7226949,3.811781 Z M7.88143538,3.811781 L5.54029827,9.11508892 L7.13131339,9.11508892 L7.57080483,8.05441218 L10.0102552,8.05441218 L10.4572509,9.11508892 L12.0860905,9.11508892 L9.74521869,3.811781 L7.88143538,3.811781 Z M8.79054898,5.12999003 L9.51031286,6.86491244 L8.07074719,6.86491244 L8.79054898,5.12999003 Z M17.0792985,9.88465375 L15.5262594,11.5817517 L13.9881531,9.88465375 L12.0866211,9.88465375 L14.5867119,12.5363456 L12.0866211,15.1879996 L13.9352064,15.1879996 L15.4959013,13.4757415 L17.0490541,15.1879996 L18.9501312,15.1879996 L16.435373,12.5211476 L18.9501312,9.88465375 L17.0792985,9.88465375 Z M7.57118383,9.88465375 L7.57118383,15.1879996 L12.0865074,15.1879996 L12.0865074,13.9606375 L9.01829165,13.9606375 L9.01829165,13.1348287 L12.0107827,13.1348287 L12.0107827,11.937711 L9.01829165,11.937711 L9.01829165,11.1120538 L12.0865074,11.1120538 L12.0865074,9.88465375 L7.57118383,9.88465375 Z M17.4938136,12.5233837 L18.9501312,14.0727086 L18.9501312,10.9869829 L17.4938136,12.5233837 Z" id="500x500" fill="#006FCF" fill-rule="nonzero"></path>
                        </g>
                    </g>
                    <rect id="Pipe" fill="#000000" x="31" y="1.5" width="1" height="16" rx="0.5"></rect>
                    <g id="UI-Networks/Mastercard" transform="translate(38.000000, 0.500000)">
                        <g id="mc_symbol">
                            <rect id="Rectangle" fill="#FF5F00" fill-rule="nonzero" x="9.97384996" y="1.96582445" width="8.35614307" height="13.6714155"></rect>
                            <path d="M10.8345375,8.80273971 C10.8324394,6.13535295 12.0548354,3.61513154 14.1495106,1.96823947 C10.5909871,-0.833168623 5.48080468,-0.425119307 2.41026218,2.90562133 C-0.660280324,6.23636195 -0.660280324,11.3715325 2.41026218,14.7022731 C5.48080468,18.0330138 10.5909871,18.4410631 14.1495106,15.639655 C12.0541689,13.9922399 10.8316981,11.470974 10.8345375,8.80273971 Z" id="Path" fill="#EB001B" fill-rule="nonzero"></path>
                            <polygon id="Path" fill="#F79E1B" fill-rule="nonzero" points="27.2023691 14.2862557 27.2023691 13.9937826 27.321892 13.9937826 27.321892 13.945037 27.035037 13.945037 27.035037 13.9937826 27.1545599 13.9937826 27.1545599 14.2862557"></polygon>
                            <polygon id="Path" fill="#F79E1B" fill-rule="nonzero" points="27.7524733 13.945037 27.656855 13.945037 27.5612367 14.1887646 27.4656184 13.945037 27.37 13.945037 27.37 14.2862557 27.4417138 14.2862557 27.4417138 14.0181553 27.521198 14.2375102 27.6090458 14.2375102 27.6859243 14.0181553 27.6859243 14.2862557 27.7524733 14.2862557"></polygon>
                            <path d="M28.1929421,8.80273971 C28.1929421,12.1314505 26.2954324,15.1679176 23.3064922,16.6225416 C20.317552,18.0771656 16.7618516,17.6945682 14.1495106,15.63724 C16.2432718,13.9889498 17.4657598,11.4690634 17.4657598,8.80153221 C17.4657598,6.13400106 16.2432718,3.61411469 14.1495106,1.96582445 C16.7618516,-0.0915037732 20.317552,-0.474101174 23.3064922,0.980522837 C26.2954324,2.43514685 28.1929421,5.47161387 28.1929421,8.80032471 L28.1929421,8.80273971 Z" id="Path" fill="#F79E1B" fill-rule="nonzero"></path>
                        </g>
                    </g>
                </g>
            </g>
        </g>
    </g>
</svg>