<svg xmlns="http://www.w3.org/2000/svg" width="35" height="37" viewBox="0 0 35 37"><defs><style>.a{fill:rgba(0,0,0,0.15);opacity:0;}.b{fill:#e5b001;}.c{fill:#654e00;}</style></defs><g transform="translate(-0.44 0.079)"><rect class="a" width="35" height="37" rx="8" transform="translate(0.44 -0.079)"/><g transform="translate(5.723 8.032)"><path d="M23.609,36.669a16.837,16.837,0,0,0-23.183.009A1.454,1.454,0,0,0,0,37.714a1.417,1.417,0,0,0,.426,1.027L2.8,41.122a1.521,1.521,0,0,0,2.048.022,10.548,10.548,0,0,1,2.434-1.693,1.52,1.52,0,0,0,.728-1.4V35.419a15.847,15.847,0,0,1,4.007-.37,15.5,15.5,0,0,1,4.007.372v2.634a1.487,1.487,0,0,0,.713,1.4,10.327,10.327,0,0,1,2.444,1.692,1.494,1.494,0,0,0,1.016.4,1.454,1.454,0,0,0,1.036-.426l2.38-2.38a1.474,1.474,0,0,0-.01-2.082Z" transform="translate(0.001 -32.048)"/><path d="M62.123,208.842a.546.546,0,0,0-.079-.115l-5.482-5.955a.5.5,0,0,0-.369-.157H49.18a.5.5,0,0,0-.369.161l-5.482,5.95a.544.544,0,0,0-.079.115,5.537,5.537,0,0,0-.582,2.466v3.831a.5.5,0,0,0,.5.5H62.2a.5.5,0,0,0,.5-.5v-3.827A5.536,5.536,0,0,0,62.123,208.842Z" transform="translate(-40.664 -194.604)"/><g transform="translate(8.015 10.014)"><path class="b" d="M172.336,330.614h-1.167a.5.5,0,1,0,0,1h1.167a.5.5,0,1,0,0-1Z" transform="translate(-170.668 -326.606)"/><path class="b" d="M233.516,330.614h-1.249a.5.5,0,0,0,0,1h1.249a.5.5,0,1,0,0-1Z" transform="translate(-228.897 -326.606)"/><path class="b" d="M297.283,330.614h-1.144a.5.5,0,1,0,0,1h1.144a.5.5,0,1,0,0-1Z" transform="translate(-289.769 -326.606)"/><path class="b" d="M182.838,287.948h-1a.5.5,0,1,0,0,1h1a.5.5,0,1,0,0-1Z" transform="translate(-180.834 -285.944)"/><path class="b" d="M235.169,288.949h1a.5.5,0,0,0,0-1h-1a.5.5,0,0,0,0,1Z" transform="translate(-231.662 -285.943)"/><path class="b" d="M289.5,288.949a.5.5,0,1,0,0-1h-1a.5.5,0,0,0,0,1Z" transform="translate(-282.492 -285.943)"/><path class="b" d="M193,245.281h-.5a.5.5,0,1,0,0,1h.5a.5.5,0,1,0,0-1Z" transform="translate(-190.999 -245.281)"/><path class="b" d="M240.5,246.282h.5a.5.5,0,0,0,0-1h-.5a.5.5,0,0,0,0,1Z" transform="translate(-236.745 -245.28)"/><path class="b" d="M288.5,246.282h.5a.5.5,0,0,0,0-1h-.5a.5.5,0,0,0,0,1Z" transform="translate(-282.491 -245.28)"/></g><g transform="translate(9.017 6.006)"><path class="c" d="M192.5,162.953a.5.5,0,0,1-.5-.5v-2a.5.5,0,1,1,1,0v2A.5.5,0,0,1,192.5,162.953Z" transform="translate(-192.001 -159.947)"/><path class="c" d="M299.169,162.953a.5.5,0,0,1-.5-.5v-2a.5.5,0,0,1,1,0v2A.5.5,0,0,1,299.169,162.953Z" transform="translate(-293.659 -159.947)"/></g></g></g></svg>