<svg xmlns="http://www.w3.org/2000/svg" width="36" height="36" viewBox="0 0 36 36"><defs><style>.a{opacity:0.85;}.b,.c{fill:#858585;}.b{opacity:0;}</style></defs><g class="a" transform="translate(0.018 -0.194)"><g transform="translate(-0.018 0.194)"><rect class="b" width="36" height="36" transform="translate(36 0) rotate(90)"/><path class="c" d="M23.687,29.911a1.338,1.338,0,0,1-.642-.162l-7.113-3.922L8.82,29.75a1.336,1.336,0,0,1-1.472-.114,1.507,1.507,0,0,1-.55-1.443l1.395-8.27L2.446,14.047A1.524,1.524,0,0,1,2.1,12.578a1.416,1.416,0,0,1,1.13-1l7.95-1.219,3.5-7.535a1.365,1.365,0,0,1,2.51,0l3.542,7.521,7.95,1.219a1.416,1.416,0,0,1,1.13,1,1.524,1.524,0,0,1-.349,1.469l-5.746,5.876,1.395,8.27a1.507,1.507,0,0,1-.558,1.469,1.344,1.344,0,0,1-.865.264Zm-7.754-7.2a1.231,1.231,0,0,1,.642.162l5.258,2.938-1-6.184a1.518,1.518,0,0,1,.4-1.307l4.184-4.3-5.858-.911a1.41,1.41,0,0,1-.99-.823L15.932,6.776,13.3,12.284a1.4,1.4,0,0,1-1.046.793l-5.858.911,4.184,4.3a1.518,1.518,0,0,1,.4,1.307l-1,6.111,5.258-2.938a1.222,1.222,0,0,1,.7-.059Z" transform="translate(2.347 1.66)"/></g></g></svg>