<svg xmlns="http://www.w3.org/2000/svg" width="376" height="352" viewBox="0 0 376 352">
  <g id="shop" transform="translate(0 -12)">
    <g id="Group_828" data-name="Group 828">
      <path id="Path_872" data-name="Path 872" d="M336,44V12H32V44L0,156v18.336c0,16.68,9.9,31.544,24,38.968V364H88V236h64V364H344V216.56c18.224-5.384,32-22.536,32-42.224V156ZM44,202.336c-13.184,0-28-10.576-28-30.336H72C72,191.728,57.2,202.336,44,202.336ZM272,44l16,112H232L224,44Zm16,128c0,19.6-14.688,30.336-28,30.336-13.608,0-28-10.984-28-30.336ZM116,202.336c-13.184,0-28-10.576-28-30.336h56C144,191.728,129.2,202.336,116,202.336ZM144,156H88L104,44h48Zm16,16h56c0,19.728-14.8,30.336-28,30.336C174.816,202.336,160,191.76,160,172ZM312,332H184V236H312Zm20-129.664c-13.608,0-28-10.984-28-30.336h56C360,191.6,345.312,202.336,332,202.336Z" fill="#8b8b8b"/>
    </g>
  </g>
</svg>
