<svg id="spam" xmlns="http://www.w3.org/2000/svg" width="383.992" height="384" viewBox="0 0 383.992 384">
  <path id="Path_892" data-name="Path 892" d="M279.992,9.375A31.788,31.788,0,0,0,257.367,0H126.617a31.781,31.781,0,0,0-22.625,9.375L9.383,103.984A31.739,31.739,0,0,0,0,126.625c.039,24.016.168,106.719.063,130.734A31.7,31.7,0,0,0,9.441,280.07l94.551,94.555A31.781,31.781,0,0,0,126.617,384h130.75a31.788,31.788,0,0,0,22.625-9.375L374.617,280a31.773,31.773,0,0,0,9.375-22.633V126.633A31.806,31.806,0,0,0,374.617,104Zm72,248L257.367,352H126.617L32.062,257.449c.105-24.082-.023-106.832-.062-130.832L126.617,32h130.75l94.625,94.633Zm0,0" fill="#8b8b8b"/>
  <path id="Path_893" data-name="Path 893" d="M191.992,64A30.126,30.126,0,0,0,162.07,97.617l14.02,128.125a16,16,0,0,0,31.8-.008L221.879,97.863A30.124,30.124,0,0,0,191.992,64Zm0,0" fill="#8b8b8b"/>
  <path id="Path_894" data-name="Path 894" d="M191.992,272a24,24,0,1,0,24,24A24.031,24.031,0,0,0,191.992,272Zm0,0" fill="#8b8b8b"/>
</svg>
