<svg xmlns="http://www.w3.org/2000/svg" width="439.309" height="512.221" viewBox="0 0 439.309 512.221">
  <g id="underarm" transform="translate(-36.457)">
    <path id="Path_925" data-name="Path 925" d="M193.108,322.6a20.819,20.819,0,0,0-2.875-9.329l1.217-.23-18.584-97.4a28,28,0,0,1-6.307-2.273,27.649,27.649,0,0,1-13.475,12.475l-67.1,29.145L99.991,328.9,90,489.983a20.942,20.942,0,0,0,19.6,22.2q.663.04,1.316.041A20.943,20.943,0,0,0,131.8,492.575l10.379-167.386a20.982,20.982,0,0,0-.035-2.807l9.388-1.779a21.009,21.009,0,0,0-.23,4.586l10.379,167.386a20.942,20.942,0,0,0,20.881,19.646q.654,0,1.316-.041a20.939,20.939,0,0,0,19.6-22.2Z" fill="#f65a82"/>
    <path id="Path_926" data-name="Path 926" d="M158.025,193.411a17.453,17.453,0,0,0-22.959-9.055l-6.473,2.811-.064.08-12.943,5.478.379-.072L89.5,204.148l3.362-7.116.1-.019-.116-.073,34.514-22.15a42.233,42.233,0,0,1,3.066-9.863c-.007-.011-.016-.021-.023-.032a29.307,29.307,0,0,1,11.512-11.359,29.707,29.707,0,0,1,12.721-3.559,26.6,26.6,0,0,1,14.3-9.858,26.291,26.291,0,0,1,3.457-.72l11.6-51.911a17.445,17.445,0,0,0-2.665-13.711L135.649,7.545a17.451,17.451,0,0,0-28.733,19.814l41.346,59.957-.064.29A48.276,48.276,0,0,1,99.2,160.236c-.206-.033-.414-.061-.619-.1.073.06.14.125.212.186l.056.049L77.63,164.4A17.449,17.449,0,0,0,65.1,174.088l-26.972,57.09A17.451,17.451,0,0,0,60.86,254.64l88.11-38.269a17.454,17.454,0,0,0,9.055-22.96Z" fill="#f65a82"/>
    <path id="Path_927" data-name="Path 927" d="M172.2,151.791a14.408,14.408,0,0,0-8.382,6.216,8.588,8.588,0,0,1-7.257,4.065c-.06,0-.12,0-.181,0-.123,0-.247,0-.371,0a17.343,17.343,0,0,0-15.976,10.587,27.785,27.785,0,0,1,29.749,28.522A15.771,15.771,0,0,0,191.1,178.207a8.252,8.252,0,0,1-1.4-8.013A14.412,14.412,0,0,0,176,151.271a14.008,14.008,0,0,0-3.8.52Z" fill="#f65a82"/>
    <path id="Path_928" data-name="Path 928" d="M208.833,163.993a11.054,11.054,0,1,0,14.582,5.638,11.042,11.042,0,0,0-14.582-5.638Z" fill="#f65a82"/>
    <path id="Path_929" data-name="Path 929" d="M201.688,158.995a8.365,8.365,0,1,0-9.282-4.818,8.395,8.395,0,0,0,9.282,4.818Z" fill="#f65a82"/>
    <path id="Path_930" data-name="Path 930" d="M220.938,140.019a6.048,6.048,0,1,0,7.978,3.084A6.05,6.05,0,0,0,220.938,140.019Z" fill="#f65a82"/>
    <path id="Path_931" data-name="Path 931" d="M106.813,148.727a36.172,36.172,0,1,0-35.495-29.439A36.293,36.293,0,0,0,106.813,148.727Z" fill="#f65a82"/>
    <path id="Path_932" data-name="Path 932" d="M406.366,22.307h-31.1L331.619,4.3A8.114,8.114,0,0,0,320.4,11.708q-.172,37.625,26.624,64.036a8.114,8.114,0,0,0,13.168-2.729l13.5-32.708h32.678a51.458,51.458,0,0,1,51.4,51.4v92.822h-11.61v-2.359a9,9,0,0,0-18,0v22.718a9,9,0,1,0,18,0v-2.359h11.61V475.162a19.081,19.081,0,0,1-19.059,19.059H350.33a9,9,0,1,0,0,18h88.376a37.1,37.1,0,0,0,37.059-37.059V91.706a69.473,69.473,0,0,0-69.4-69.4Z" fill="#f65a82"/>
    <path id="Path_933" data-name="Path 933" d="M297.6,96.861l-8.35,8.619a6,6,0,0,0,8.619,8.35l8.35-8.619a6,6,0,0,0-8.619-8.35Z" fill="#f65a82"/>
    <path id="Path_934" data-name="Path 934" d="M275.334,119.845l-7.539,7.782a6,6,0,0,0,8.619,8.35l7.539-7.782a6,6,0,0,0-8.619-8.35Z" fill="#f65a82"/>
    <path id="Path_935" data-name="Path 935" d="M319.867,73.878l-8.35,8.619a6,6,0,0,0,8.619,8.35l8.35-8.619a6,6,0,0,0-8.619-8.35Z" fill="#f65a82"/>
    <path id="Path_936" data-name="Path 936" d="M295.538,58.693a6,6,0,0,0,7.973,2.906l10.878-5.066a6,6,0,1,0-5.067-10.878l-10.878,5.066A6,6,0,0,0,295.538,58.693Z" fill="#f65a82"/>
    <path id="Path_937" data-name="Path 937" d="M251.307,72.676l-10.878,5.066A6,6,0,1,0,245.5,88.62l10.878-5.066a6,6,0,1,0-5.067-10.878Z" fill="#f65a82"/>
    <path id="Path_938" data-name="Path 938" d="M288.287,62.071a6,6,0,0,0-7.973-2.906l-10.878,5.066A6,6,0,1,0,274.5,75.109l10.878-5.066A6,6,0,0,0,288.287,62.071Z" fill="#f65a82"/>
    <path id="Path_939" data-name="Path 939" d="M254.943,34.39l11.9-1.563a6,6,0,1,0-1.564-11.9l-11.9,1.563a6,6,0,1,0,1.564,11.9Z" fill="#f65a82"/>
    <path id="Path_940" data-name="Path 940" d="M240.281,30.265a6.007,6.007,0,0,0-6.73-5.167l-11.9,1.563a6,6,0,1,0,1.562,11.9l11.9-1.563A6,6,0,0,0,240.281,30.265Z" fill="#f65a82"/>
    <path id="Path_941" data-name="Path 941" d="M286.67,30.22l11.9-1.563A6,6,0,0,0,297,16.759l-11.9,1.563a6,6,0,0,0,1.564,11.9Z" fill="#f65a82"/>
  </g>
</svg>
