<svg xmlns="http://www.w3.org/2000/svg" xmlns:xlink="http://www.w3.org/1999/xlink" width="68" height="68" viewBox="0 0 68 68"><defs><style>.a,.b,.c{fill:#e5b001;}.a{stroke:#e5b001;stroke-width:2px;opacity:0.1;}.b{opacity:0;}.d{stroke:none;}.e{fill:none;}.f{filter:url(#a);}</style><filter id="a" x="15.252" y="18.527" width="37.496" height="34.946" filterUnits="userSpaceOnUse"><feOffset dy="2" input="SourceAlpha"/><feGaussianBlur stdDeviation="2" result="b"/><feFlood flood-opacity="0.078"/><feComposite operator="in" in2="b"/><feComposite in="SourceGraphic"/></filter></defs><g transform="translate(-948 -197)"><g class="a" transform="translate(948 197)"><circle class="d" cx="34" cy="34" r="34"/><circle class="e" cx="34" cy="34" r="33"/></g><g transform="translate(966.723 215.723)"><g transform="translate(-0.23 -0.23)"><rect class="b" width="32" height="32" transform="translate(-0.492 -0.493)"/><g class="f" transform="matrix(1, 0, 0, 1, -18.49, -18.49)"><path class="c" d="M23.672,8.1H19.847V6.187A3.187,3.187,0,0,0,16.66,3H12.836A3.187,3.187,0,0,0,9.649,6.187V8.1H5.824A3.824,3.824,0,0,0,2,11.924v10.2a3.824,3.824,0,0,0,3.824,3.824H23.672A3.824,3.824,0,0,0,27.5,22.122v-10.2A3.824,3.824,0,0,0,23.672,8.1ZM12.2,6.187a.637.637,0,0,1,.637-.637H16.66a.637.637,0,0,1,.637.637V8.1H12.2ZM24.946,22.122A1.275,1.275,0,0,1,23.672,23.4H5.824A1.275,1.275,0,0,1,4.55,22.122v-10.2a1.275,1.275,0,0,1,1.275-1.275H23.672a1.275,1.275,0,0,1,1.275,1.275Z" transform="translate(19.25 19.53)"/></g><path class="c" d="M12.962,10.5a4.462,4.462,0,1,0,4.462,4.462A4.462,4.462,0,0,0,12.962,10.5Zm0,6.374a1.912,1.912,0,1,1,1.912-1.912A1.912,1.912,0,0,1,12.962,16.874Z" transform="translate(2.545 3.095)"/></g></g></g></svg>