<svg xmlns="http://www.w3.org/2000/svg" width="400" height="512" viewBox="0 0 400 512">
  <g id="washing-machine" transform="translate(-56)">
    <path id="Path_909" data-name="Path 909" d="M408,0H104A48,48,0,0,0,56,48V91a5,5,0,0,0,5,5H451a5,5,0,0,0,5-5V48A48,48,0,0,0,408,0ZM320,64h-8a16,16,0,0,1,0-32h8a16,16,0,0,1,0,32Zm64,0h-8a16,16,0,0,1,0-32h8a16,16,0,0,1,0,32Z" fill="#ea3664"/>
    <path id="Path_910" data-name="Path 910" d="M56,133V496a16,16,0,0,0,16,16H440a16,16,0,0,0,16-16V133a5,5,0,0,0-5-5H61A5,5,0,0,0,56,133Zm200,43A128.147,128.147,0,0,1,384,303.8c.82,68.68-56.08,128.2-128,128.2-71.29,0-128.12-58.28-128-128.01A128.142,128.142,0,0,1,256,176Z" fill="#ea3664"/>
    <path id="Path_911" data-name="Path 911" d="M256,400a96.162,96.162,0,0,0,90.271-63.321,5,5,0,0,0-5.826-6.583,133.673,133.673,0,0,1-30.685,3.775c-61.032,0-76.026-44.4-145.308-20.635a5,5,0,0,0-3.318,5.481A96.146,96.146,0,0,0,256,400Z" fill="#ea3664"/>
    <path id="Path_912" data-name="Path 912" d="M262.3,289.29c24,10.285,45.064,19.293,85.25,5.476a5,5,0,0,0,3.316-5.48A96,96,0,0,0,165.731,271.31a5.006,5.006,0,0,0,5.855,6.576c41.416-9.716,67.32,1.379,90.714,11.4Z" fill="#ea3664"/>
  </g>
</svg>
