<svg xmlns="http://www.w3.org/2000/svg" width="126.676" height="187.621" viewBox="0 0 126.676 187.621"><defs><style>.a{fill:#535252;}.b{fill:#ffcb2a;}.c{fill:#fcb815;}</style></defs><g transform="translate(-305.56 -206.24)"><path class="a" d="M326.808,775.834v1.359h-6.55a6.336,6.336,0,0,1-2.761-.494,2.927,2.927,0,0,1-1.448-1.562,7.856,7.856,0,0,1-.442-2.921,8.33,8.33,0,0,1,.423-2.93,2.936,2.936,0,0,1,1.4-1.614,5.69,5.69,0,0,1,2.626-.512q.727,0,2.234.07t2.27.147v8.456Zm-9.352-1.513a2.147,2.147,0,0,0,1.049,1.151,4.574,4.574,0,0,0,2.007.362h2.537v-7.179q-1.73-.114-2.672-.116a3.18,3.18,0,0,0-2.519.847,4.267,4.267,0,0,0-.727,2.792,5.729,5.729,0,0,0,.325,2.145Zm1.209-10.432h1.494v1.651h-1.494Zm2.454,0h1.494v1.651h-1.491Z" transform="translate(-6.96 -386.557)"/><path class="a" d="M359.533,783.667v1.359H352.17v-1.359h2.93V775.19h1.513v8.477Zm-5.685,2.93h1.494v1.654h-1.494Zm2.454,0H357.8v1.654H356.3Z" transform="translate(-32.31 -394.39)"/><path class="a" d="M383.573,775.786v1.359H376.21v-1.359h2.93v-8.477h1.513v8.477Zm-4.446-11.966h1.494v1.651h-1.494Z" transform="translate(-48.974 -386.509)"/><path class="a" d="M410.506,775.731a5.546,5.546,0,0,1,1.141,3.933v4.909H400.2v-1.359h3.246a21.3,21.3,0,0,1-.276-3.442,20.966,20.966,0,0,1,.16-2.6,18.533,18.533,0,0,1,.353-2.1,7.287,7.287,0,0,1,1.365-.353,10.553,10.553,0,0,1,1.908-.169A4.734,4.734,0,0,1,410.506,775.731Zm-5.731,5.968c.058.638.12,1.144.187,1.534h5.173v-3.587a4.016,4.016,0,0,0-.847-2.872,3.46,3.46,0,0,0-2.577-.865,6.7,6.7,0,0,0-1.709.2,20.152,20.152,0,0,0-.307,3.682,18.6,18.6,0,0,0,.08,1.911Z" transform="translate(-65.604 -393.947)"/><path class="a" d="M453.223,756.053v14.113h-9.3v-1.359h2.519V758.682h1.516v10.125h3.774V756.044Zm-4.3.963-4.013.785-.175-.614.942-.255a1.786,1.786,0,0,1-.156-2.645,1.767,1.767,0,0,1,1.319-.522,2.26,2.26,0,0,1,.844.156,2.3,2.3,0,0,1,.589.307l-.2.746a1.456,1.456,0,0,0-.362-.2,1.477,1.477,0,0,0-.543-.1,1.1,1.1,0,0,0-.835.334,1.089,1.089,0,0,0-.325.788,1.055,1.055,0,0,0,.454.9l2.24-.589Z" transform="translate(-95.91 -379.54)"/><path class="a" d="M485.14,761.22h1.516v14.113H485.14Z" transform="translate(-124.483 -384.706)"/><path class="a" d="M523.671,775.834v1.359h-6.554a6.336,6.336,0,0,1-2.761-.494,2.927,2.927,0,0,1-1.448-1.562,7.856,7.856,0,0,1-.442-2.921,8.327,8.327,0,0,1,.423-2.93,2.936,2.936,0,0,1,1.4-1.614,5.689,5.689,0,0,1,2.626-.512q.727,0,2.234.07c1,.046,1.758.1,2.27.147v8.456Zm-9.352-1.513a2.148,2.148,0,0,0,1.049,1.151,4.574,4.574,0,0,0,2.007.362h2.537v-7.179q-1.733-.129-2.685-.129a3.181,3.181,0,0,0-2.519.847,4.266,4.266,0,0,0-.727,2.792,5.729,5.729,0,0,0,.334,2.157Zm1.209-10.432h1.494v1.651h-1.494Zm2.454,0h1.494v1.651h-1.494Z" transform="translate(-143.421 -386.557)"/><path class="a" d="M562.644,783.224v1.359h-.629a1.817,1.817,0,0,1-.795-.209,2.964,2.964,0,0,1-.779-.558v.767H549v-1.359h3.243a21.808,21.808,0,0,1-.117-6.047,19.3,19.3,0,0,1,.353-2.1,7.289,7.289,0,0,1,1.378-.362,10.583,10.583,0,0,1,1.908-.169,4.726,4.726,0,0,1,3.541,1.181,5.543,5.543,0,0,1,1.138,3.933v2.813a1.979,1.979,0,0,0,1.574.746Zm-9.076-1.534c.058.638.123,1.144.187,1.534h5.173v-3.577a4.016,4.016,0,0,0-.847-2.872,3.452,3.452,0,0,0-2.574-.865,6.7,6.7,0,0,0-1.712.2,20.136,20.136,0,0,0-.307,3.682,18.587,18.587,0,0,0,.08,1.911Z" transform="translate(-168.75 -393.947)"/><path class="a" d="M608.81,773.983v1.359H593.47v-1.359h1.841V761.22h1.516v8.615a14.256,14.256,0,0,1,2.574-3.286,4.645,4.645,0,0,1,5.277-.727,3.958,3.958,0,0,1,1.635,1.663,5.992,5.992,0,0,1,.638,2.921v3.577Zm-9.174-6.136a9.581,9.581,0,0,0-2.016,2.817,6.317,6.317,0,0,0-.776,2.6V774h8.612v-3.611a4.209,4.209,0,0,0-.482-2.148,3,3,0,0,0-1.209-1.212,3.2,3.2,0,0,0-1.476-.371,3.924,3.924,0,0,0-2.654,1.2Zm.561-5.829h1.494v1.651H600.2Z" transform="translate(-199.576 -384.707)"/><path class="a" d="M647.928,767.329v9.836H643.47v-1.359h2.924v-8.477Zm-1.534-3.479h1.494V765.5h-1.494Z" transform="translate(-234.236 -386.53)"/><path class="a" d="M676.725,768.816v1.359H665.68v-1.359H668.2V758.692h1.516v10.125h3.774V756.053h1.5v12.763Zm-6.038-11.8-4.013.785-.175-.614.942-.255a1.792,1.792,0,0,1-.156-2.645,1.767,1.767,0,0,1,1.319-.522,2.26,2.26,0,0,1,.844.156,2.389,2.389,0,0,1,.592.307l-.2.746a1.534,1.534,0,0,0-.365-.2,1.469,1.469,0,0,0-.54-.1,1.126,1.126,0,0,0-1.163,1.123,1.055,1.055,0,0,0,.454.9l2.243-.589Z" transform="translate(-249.631 -379.54)"/><path class="a" d="M705.613,761.2v14.113H701.68v-1.359H704.1V761.19Z" transform="translate(-274.586 -384.686)"/><path class="b" d="M330.75,607.677v9.928a3.8,3.8,0,0,1-1.169,2.909,4.534,4.534,0,0,1-3.228,1.1h-5.3a4.534,4.534,0,0,1-3.228-1.1,3.819,3.819,0,0,1-1.169-2.927,39.294,39.294,0,0,1,.678-5.342l1.378.227q-.322,2.056-.463,3.1a13.468,13.468,0,0,0-.141,1.7,3.172,3.172,0,0,0,.746,2.227,2.923,2.923,0,0,0,2.258.81h5.157a2.942,2.942,0,0,0,2.276-.81,3.172,3.172,0,0,0,.746-2.227v-.359h-2.737a4.48,4.48,0,0,1-2.031-.377,2.224,2.224,0,0,1-1.055-1.322,8.522,8.522,0,0,1-.331-2.7,9.05,9.05,0,0,1,.371-2.9A2.9,2.9,0,0,1,324.795,608a5.153,5.153,0,0,1,2.55-.528q.568,0,1.436.046c.577.031,1.055.064,1.433.1Zm-5.915,6.7a1.592,1.592,0,0,0,.764.954,3.221,3.221,0,0,0,1.454.273H329.3v-6.75q-1.3-.113-1.776-.114a3.376,3.376,0,0,0-1.764.387,2.1,2.1,0,0,0-.9,1.187,6.943,6.943,0,0,0-.264,2.126A6.135,6.135,0,0,0,324.835,614.378Zm.877-10.248h1.433v1.583h-1.433Zm2.359,0H329.5v1.583h-1.433Z" transform="translate(-7.693 -275.813)"/><path class="b" d="M375.561,615.2q1.39,1.482,1.387,4.823v3.531H369.36v-1.3H375.5v-2.191q0-2.789-1.086-3.915a3.427,3.427,0,0,0-2.54-1.123h-1.534l-.1-1.077a3.823,3.823,0,0,1,.764-.15,8.783,8.783,0,0,1,1.1-.077A4.525,4.525,0,0,1,375.561,615.2Z" transform="translate(-44.225 -282.458)"/><path class="b" d="M409.564,623.633H407.2a7.048,7.048,0,0,1-.878,3.528,2.674,2.674,0,0,1-2.405,1.141,22.607,22.607,0,0,1-2.85-.282v-1.283a19.857,19.857,0,0,0,2.761.264,2.124,2.124,0,0,0,1.068-.236,1.678,1.678,0,0,0,.65-.973,7.3,7.3,0,0,0,.245-2.169h-2.783a2.764,2.764,0,0,1-2.724-1.3,7.364,7.364,0,0,1-.672-3.375,9.918,9.918,0,0,1,.341-2.859,2.963,2.963,0,0,1,1.227-1.681,4.523,4.523,0,0,1,2.473-.574,17.262,17.262,0,0,1,1.819.113q1.068.11,1.767.245v8.133h2.319Zm-7.992-2.258a2.026,2.026,0,0,0,2,.954H405.8v-7.057a14.511,14.511,0,0,0-1.773-.132,3.215,3.215,0,0,0-1.795.426,2.216,2.216,0,0,0-.9,1.246,7.176,7.176,0,0,0-.255,2.1A5.351,5.351,0,0,0,401.572,621.375Z" transform="translate(-65.196 -282.537)"/><path class="b" d="M432.05,641.53h4.719v1.3H432.05Z" transform="translate(-87.682 -301.739)"/><path class="b" d="M447.43,641.53h4.719v1.3H447.43Z" transform="translate(-98.343 -301.739)"/><path class="b" d="M462.81,641.53h4.719v1.3H462.81Z" transform="translate(-109.004 -301.739)"/><path class="b" d="M481.967,601.6v13.555H478.19v-1.3h2.323V601.6Z" transform="translate(-119.665 -274.059)"/><path class="b" d="M501.57,601.6h1.454v13.555H501.57Z" transform="translate(-135.872 -274.059)"/><path class="b" d="M530.294,619.324a4.36,4.36,0,0,1-1.792-1.414,3.43,3.43,0,0,1-.663-2.077,21.229,21.229,0,0,1,.227-2.415q.227-1.7.528-3.418l1.4.077q-.285,1.841-.491,3.482a21.871,21.871,0,0,0-.209,2.178,2.412,2.412,0,0,0,.463,1.454,2.982,2.982,0,0,0,1.255.991,4.3,4.3,0,0,0,1.755.35,3.838,3.838,0,0,0,2.369-.727,2.43,2.43,0,0,0,.972-2.068V601.6h1.454v14.31a3.526,3.526,0,0,1-.653,2.148,3.96,3.96,0,0,1-1.737,1.332,6.215,6.215,0,0,1-2.375.436A6.032,6.032,0,0,1,530.294,619.324Z" transform="translate(-154.081 -274.059)"/><path class="b" d="M573.828,613.851v1.3H570.6V601.6h1.454v12.251Z" transform="translate(-183.723 -274.059)"/><path class="b" d="M581.12,641.53h4.719v1.3H581.12Z" transform="translate(-191.015 -301.739)"/><path class="b" d="M596.5,641.53h4.719v1.3H596.5Z" transform="translate(-201.677 -301.739)"/><path class="b" d="M611.88,641.53H616.6v1.3H611.88Z" transform="translate(-212.338 -301.739)"/><path class="b" d="M640.373,622.724v1.3h-.614a1.748,1.748,0,0,1-.764-.2,2.762,2.762,0,0,1-.745-.537v.736H627.26v-1.3h3.114a20.668,20.668,0,0,1-.11-5.8,17.548,17.548,0,0,1,.338-2.01,6.927,6.927,0,0,1,1.322-.35,10.047,10.047,0,0,1,1.841-.16,4.537,4.537,0,0,1,3.4,1.132,5.328,5.328,0,0,1,1.1,3.777v2.7a1.889,1.889,0,0,0,1.509.718Zm-8.71-1.464c.055.614.117,1.1.178,1.464H636.8v-3.436a3.887,3.887,0,0,0-.81-2.761,3.325,3.325,0,0,0-2.473-.828,6.5,6.5,0,0,0-1.645.187,19.69,19.69,0,0,0-.307,3.528,17.541,17.541,0,0,0,.08,1.847Z" transform="translate(-222.999 -282.932)"/><path class="b" d="M679.935,622.724v1.3H670v-1.3h3.528a4.952,4.952,0,0,1-.887-1.623,6.769,6.769,0,0,1-.359-2.264,4.814,4.814,0,0,1,1.031-3.209,3.652,3.652,0,0,1,2.951-1.227,7.337,7.337,0,0,1,3.117.755l-.058,1.282a4.389,4.389,0,0,0-1.209-.469,6.092,6.092,0,0,0-1.678-.264,2.411,2.411,0,0,0-2,.868,3.651,3.651,0,0,0-.7,2.359,5.328,5.328,0,0,0,.445,2.215,4.5,4.5,0,0,0,1.1,1.577Z" transform="translate(-252.626 -282.932)"/><path class="b" d="M709.359,595.052l-3.851.755-.169-.614.905-.245a1.718,1.718,0,0,1-.15-2.541,1.7,1.7,0,0,1,1.264-.5,2.15,2.15,0,0,1,.81.153,2.211,2.211,0,0,1,.568.307l-.19.718a1.291,1.291,0,0,0-.347-.19,1.434,1.434,0,0,0-.522-.092,1.064,1.064,0,0,0-.8.307,1.05,1.05,0,0,0-.307.755,1.025,1.025,0,0,0,.436.868l2.148-.565ZM706.7,596.5h1.454v11.932H706.7Z" transform="translate(-277.123 -267.34)"/><path class="a" d="M323.615,695.879h-5.587l-.942,3.375H315.65l3.587-13.064h3.172L326,699.254H324.56Zm-5.265-1.3H323.3l-1.982-7.155h-.982Z" transform="translate(-6.994 -332.696)"/><path class="a" d="M365.731,697.91v1.3h-7.2V686.15h1.454v11.76Z" transform="translate(-36.718 -332.669)"/><path class="a" d="M384.31,686.15h1.509l2.227,11.778h.549l2.66-11.659h1.7l2.66,11.659h.565l2.227-11.778H399.9l-2.645,13.064h-2.66l-2.473-11.156-2.473,11.156h-2.672Z" transform="translate(-54.589 -332.669)"/><path class="a" d="M447.525,695.879h-5.587L441,699.254H439.56l3.587-13.064h3.169l3.587,13.064H448.47Zm-5.265-1.3h4.946l-1.988-7.155h-.982Z" transform="translate(-92.887 -332.696)"/><path class="a" d="M490.15,687.025a4.172,4.172,0,0,1,1.427,2.209,12.177,12.177,0,0,1,.359,3.133q0,3.59-1.181,5.216a4.232,4.232,0,0,1-3.651,1.635H482.44V686.15H487.1A4.694,4.694,0,0,1,490.15,687.025Zm.307,5.474a7.062,7.062,0,0,0-.813-3.851,2.832,2.832,0,0,0-2.528-1.209h-3.221v10.5H487.1q3.341-.006,3.341-5.443Z" transform="translate(-122.611 -332.669)"/><path class="a" d="M524.928,698.26a3.967,3.967,0,0,1-1.586-2.178,15.375,15.375,0,0,1,0-7.637,3.989,3.989,0,0,1,1.577-2.191,5.369,5.369,0,0,1,2.964-.715,19.171,19.171,0,0,1,3.642.377l.641.114-.055,1.206a24.86,24.86,0,0,0-4.059-.4,4,4,0,0,0-2.237.537,2.88,2.88,0,0,0-1.123,1.7,15.864,15.864,0,0,0,0,6.363,2.932,2.932,0,0,0,1.114,1.706,3.878,3.878,0,0,0,2.228.549,15.055,15.055,0,0,0,2.7-.264V693.41h-2.172v-1.285h3.6v6.415a22.816,22.816,0,0,1-4.246.454A5.519,5.519,0,0,1,524.928,698.26Z" transform="translate(-150.63 -332.246)"/><path class="a" d="M585.148,695.879h-5.587l-.945,3.375H577.18l3.587-13.064h3.172l3.587,13.064H586.09Zm-5.262-1.3h4.94l-1.982-7.155h-.982Z" transform="translate(-188.284 -332.696)"/><path class="a" d="M619.6,698.233a3.759,3.759,0,0,1-1.473-2.182,18.335,18.335,0,0,1,0-7.578,3.814,3.814,0,0,1,1.445-2.188,5.136,5.136,0,0,1,3.01-.746,17.7,17.7,0,0,1,3.531.414l-.058,1.227a19.064,19.064,0,0,0-3.283-.341,3.9,3.9,0,0,0-2.228.528,2.762,2.762,0,0,0-1.031,1.7,16.039,16.039,0,0,0-.273,3.4,13.919,13.919,0,0,0,.255,3.01,2.657,2.657,0,0,0,1.049,1.641,4.175,4.175,0,0,0,2.4.558,17.242,17.242,0,0,0,3.114-.337l.058,1.246a17.491,17.491,0,0,1-3.436.4A5.388,5.388,0,0,1,619.6,698.233Z" transform="translate(-216.393 -332.246)"/><path class="a" d="M654.849,687.454H650.83v-1.3h9.438v1.3h-3.989v11.76h-1.436Z" transform="translate(-239.338 -332.669)"/><path class="a" d="M688.585,698.582l-.681-.092.15-1.209a32.7,32.7,0,0,0,3.909.341q2.795,0,2.792-2.626a2.147,2.147,0,0,0-.255-1.132,1.8,1.8,0,0,0-.868-.678,8.947,8.947,0,0,0-1.792-.5,10.778,10.778,0,0,1-2.405-.736,2.762,2.762,0,0,1-1.246-1.1,3.756,3.756,0,0,1-.4-1.869q0-3.513,4.209-3.513a27.517,27.517,0,0,1,3.945.38l-.132,1.227q-2.721-.307-3.719-.307-2.832,0-2.832,2.148a2.31,2.31,0,0,0,.273,1.227,1.929,1.929,0,0,0,.921.69,14.779,14.779,0,0,0,2.1.583,9.513,9.513,0,0,1,2.148.718,2.6,2.6,0,0,1,1.123,1.049,3.564,3.564,0,0,1,.359,1.724q0,4.022-4.17,4.022a24.136,24.136,0,0,1-3.427-.341Z" transform="translate(-264.956 -332.19)"/><path class="a" d="M543.85,350.8V328.89l-26.2,15.718L516.7,367Z" transform="translate(-146.36 -85.02)"/><path class="a" d="M438.3,386.562v22.152l-60.969,32.866L315.65,383.23l61.684,36.676Z" transform="translate(-6.994 -122.688)"/><path class="a" d="M586.279,259.352l.927-19.8L530.31,206.24l-1.19,22.627Z" transform="translate(-154.969 0)"/><path class="c" d="M375.341,206.24,305.56,246.015l64.78,35.961.951-22.388-24.769-13.337,27.628-17.384Z" transform="translate(0 0)"/></g></svg>