<svg xmlns="http://www.w3.org/2000/svg" width="409.602" height="418.805" viewBox="0 0 409.602 418.805">
  <g id="weightlifter" transform="translate(-0.402 0)">
    <path id="Path_815" data-name="Path 815" d="M205.2,157.012a40.959,40.959,0,1,1,40.961-40.957A41,41,0,0,1,205.2,157.012Zm0-68.266a27.307,27.307,0,1,0,27.3,27.309A27.339,27.339,0,0,0,205.2,88.746Zm0,0" fill="#ea3664"/>
    <path id="Path_816" data-name="Path 816" d="M254.066,207.125a6.828,6.828,0,0,1-4.324-12.113,6.767,6.767,0,0,0,1.574-1.859L316.5,76.55a6.825,6.825,0,1,0-11.773-6.906L247.574,171.878a6.83,6.83,0,0,1-11.922-6.668L292.851,62.9A20.48,20.48,0,1,1,328.367,83.3L263.191,199.9a20.517,20.517,0,0,1-4.8,5.688,6.817,6.817,0,0,1-4.32,1.539Zm0,0" fill="#ea3664"/>
    <path id="Path_817" data-name="Path 817" d="M61.332,418.8A20.465,20.465,0,0,1,46.7,384.047l74.523-78.578a6.828,6.828,0,0,1,9.906,9.4l-74.59,78.648a6.827,6.827,0,1,0,9.711,9.6l75.27-79.367a6.829,6.829,0,0,1,9.906,9.4l-75.34,79.434A20.575,20.575,0,0,1,61.332,418.8Zm0,0" fill="#ea3664"/>
    <path id="Path_818" data-name="Path 818" d="M158.578,207.094a6.794,6.794,0,0,1-4.336-1.555,20.443,20.443,0,0,1-4.7-5.559L84.262,83.219a20.482,20.482,0,0,1,35.523-20.4l57.242,102.391a6.828,6.828,0,0,1-11.918,6.668L107.91,69.566a6.827,6.827,0,0,0-11.777,6.906l65.273,116.758a6.718,6.718,0,0,0,1.508,1.762,6.828,6.828,0,0,1-4.336,12.1Zm0,0" fill="#ea3664"/>
    <path id="Path_819" data-name="Path 819" d="M307.621,416.426a20.474,20.474,0,0,1-20.215-23.844L298.449,326.3l-23.219-10.32a6.829,6.829,0,0,1,5.547-12.48l28.051,12.469a6.825,6.825,0,0,1,3.957,7.359l-11.91,71.492a6.825,6.825,0,1,0,13.465,2.246l13.652-81.91a6.815,6.815,0,0,0-3.957-7.359L281.992,289.11a6.829,6.829,0,0,1,5.547-12.48l42.043,18.688A20.483,20.483,0,0,1,341.461,317.4l-13.652,81.918a20.413,20.413,0,0,1-20.187,17.109Zm0,0" fill="#ea3664"/>
    <path id="Path_820" data-name="Path 820" d="M160.988,343.961a6.855,6.855,0,0,1-4.648-1.828l-39.992-37.191a6.83,6.83,0,0,1,.07-10.062l40.711-36.852-6.508-69.809c-.031-13.727,10.625-24.379,23.715-24.379H236.07a23.773,23.773,0,0,1,23.746,23.746c0,.234-.016.473-.035.707l-6.3,60.809,35.938,15.125a6.824,6.824,0,0,1,3.793,8.547L277.324,318.2a6.827,6.827,0,0,1-9.258,3.965L208.07,295l-42,46.7a6.843,6.843,0,0,1-4.773,2.254c-.105.008-.207.008-.309.008ZM131.1,300.008l29.457,27.4,40.707-45.254a6.848,6.848,0,0,1,7.891-1.652l57.75,26.145,11.3-32.324-34.687-14.6a6.833,6.833,0,0,1-4.141-7l6.785-65.441a10.106,10.106,0,0,0-10.09-9.785H174.336a10.1,10.1,0,0,0-10.09,10.094l6.793,72.57a6.817,6.817,0,0,1-2.215,5.7Zm0,0" fill="#ea3664"/>
    <path id="Path_821" data-name="Path 821" d="M341.734,68.266H68.668a6.826,6.826,0,0,1,0-13.652H341.734a6.826,6.826,0,1,1,0,13.652Zm0,0" fill="#ea3664"/>
    <path id="Path_822" data-name="Path 822" d="M68.668,122.879H48.191a6.822,6.822,0,0,1-6.828-6.824V6.828A6.825,6.825,0,0,1,48.191,0H68.668A6.825,6.825,0,0,1,75.5,6.828V116.055A6.822,6.822,0,0,1,68.668,122.879ZM55.016,109.227h6.828V13.652H55.016Zm0,0" fill="#ea3664"/>
    <path id="Path_823" data-name="Path 823" d="M48.191,122.879H27.711a6.824,6.824,0,0,1-6.828-6.824V6.828A6.828,6.828,0,0,1,27.711,0h20.48a6.824,6.824,0,0,1,6.824,6.828V116.055A6.821,6.821,0,0,1,48.191,122.879ZM34.535,109.227h6.828V13.652H34.535Zm0,0" fill="#ea3664"/>
    <path id="Path_824" data-name="Path 824" d="M382.7,122.879h-20.48a6.821,6.821,0,0,1-6.824-6.824V6.828A6.824,6.824,0,0,1,362.215,0H382.7a6.828,6.828,0,0,1,6.828,6.828V116.055A6.824,6.824,0,0,1,382.7,122.879Zm-13.652-13.652h6.828V13.652h-6.828Zm0,0" fill="#ea3664"/>
    <path id="Path_825" data-name="Path 825" d="M362.215,122.879h-20.48a6.821,6.821,0,0,1-6.824-6.824V6.828A6.824,6.824,0,0,1,341.734,0h20.48a6.828,6.828,0,0,1,6.828,6.828V116.055A6.824,6.824,0,0,1,362.215,122.879Zm-13.652-13.652h6.828V13.652h-6.828Zm0,0" fill="#ea3664"/>
    <path id="Path_826" data-name="Path 826" d="M27.711,68.266H7.23a6.826,6.826,0,1,1,0-13.652h20.48a6.826,6.826,0,0,1,0,13.652Zm0,0" fill="#ea3664"/>
    <path id="Path_827" data-name="Path 827" d="M403.176,68.266H382.7a6.826,6.826,0,0,1,0-13.652h20.48a6.826,6.826,0,1,1,0,13.652Zm0,0" fill="#ea3664"/>
  </g>
</svg>
