<svg xmlns="http://www.w3.org/2000/svg" width="88.361" height="64.293" viewBox="0 0 88.361 64.293"><defs><style>.a{opacity:0.5;}.b{fill:#e5b001;}</style></defs><g class="a" transform="translate(0 -66.65)"><g transform="translate(0 66.65)"><path class="b" d="M69.042,130.943H50.084V111.787h6.265a1.96,1.96,0,0,0,1.589-3.105L45.751,91.818a1.942,1.942,0,0,0-3.16,0L30.4,108.682a1.955,1.955,0,0,0,1.589,3.105h6.265v19.156H17.026C7.547,130.42,0,121.555,0,111.95A17.986,17.986,0,0,1,8.919,96.422a12.059,12.059,0,0,1-.74-4.207A12.228,12.228,0,0,1,20.42,79.974a12.032,12.032,0,0,1,4.189.74A24.506,24.506,0,0,1,71.172,88.8c9.768,1.679,17.188,10.725,17.188,20.962C88.361,120.706,79.839,130.185,69.042,130.943Z" transform="translate(0 -66.65)"/></g></g></svg>