<svg xmlns="http://www.w3.org/2000/svg" width="512" height="484.504" viewBox="0 0 512 484.504">
  <g id="concierge" transform="translate(0 -13.748)">
    <g id="Group_782" data-name="Group 782">
      <g id="Group_781" data-name="Group 781">
        <path id="Path_828" data-name="Path 828" d="M294.028,198.446a11.676,11.676,0,1,0,11.677,11.677A11.69,11.69,0,0,0,294.028,198.446Z" fill="#ea3664"/>
      </g>
    </g>
    <g id="Group_784" data-name="Group 784">
      <g id="Group_783" data-name="Group 783">
        <path id="Path_829" data-name="Path 829" d="M217.836,198.446a11.676,11.676,0,1,0,11.677,11.677A11.69,11.69,0,0,0,217.836,198.446Z" fill="#ea3664"/>
      </g>
    </g>
    <g id="Group_786" data-name="Group 786">
      <g id="Group_785" data-name="Group 785">
        <path id="Path_830" data-name="Path 830" d="M266.184,247.664H245.768a10.446,10.446,0,0,0-10.446,10.446,20.654,20.654,0,0,0,41.308,0A10.446,10.446,0,0,0,266.184,247.664Z" fill="#ea3664"/>
      </g>
    </g>
    <g id="Group_788" data-name="Group 788">
      <g id="Group_787" data-name="Group 787">
        <path id="Path_831" data-name="Path 831" d="M63.891,240.206A11.491,11.491,0,1,0,75.382,251.7,11.5,11.5,0,0,0,63.891,240.206Z" fill="#ea3664"/>
      </g>
    </g>
    <g id="Group_790" data-name="Group 790">
      <g id="Group_789" data-name="Group 789">
        <path id="Path_832" data-name="Path 832" d="M81.793,305h-.158a10.446,10.446,0,0,0,0,20.892h.158a10.446,10.446,0,0,0,0-20.892Z" fill="#ea3664"/>
      </g>
    </g>
    <g id="Group_792" data-name="Group 792">
      <g id="Group_791" data-name="Group 791">
        <path id="Path_833" data-name="Path 833" d="M119.126,305.16a59.237,59.237,0,0,0-110.468,0A10.45,10.45,0,0,0,.052,315.444V342.6A10.446,10.446,0,0,0,10.5,353.05H117.286A10.446,10.446,0,0,0,127.732,342.6v-27.16A10.448,10.448,0,0,0,119.126,305.16Zm-12.286,27h-85.9V325.89H46.888a10.446,10.446,0,0,0,0-20.892H32.163a38.348,38.348,0,0,1,69.042,12.816,10.446,10.446,0,0,0,5.635,7.039v7.305Z" fill="#ea3664"/>
      </g>
    </g>
    <g id="Group_794" data-name="Group 794">
      <g id="Group_793" data-name="Group 793">
        <path id="Path_834" data-name="Path 834" d="M289.522,432.442h-.137a10.446,10.446,0,0,0,0,20.892h.137a10.446,10.446,0,0,0,0-20.892Z" fill="#ea3664"/>
      </g>
    </g>
    <g id="Group_796" data-name="Group 796">
      <g id="Group_795" data-name="Group 795">
        <path id="Path_835" data-name="Path 835" d="M289.522,398.667h-.137a10.446,10.446,0,1,0,0,20.892h.137a10.446,10.446,0,0,0,0-20.892Z" fill="#ea3664"/>
      </g>
    </g>
    <g id="Group_798" data-name="Group 798">
      <g id="Group_797" data-name="Group 797">
        <path id="Path_836" data-name="Path 836" d="M289.522,364.89h-.137a10.446,10.446,0,1,0,0,20.892h.137a10.446,10.446,0,0,0,0-20.892Z" fill="#ea3664"/>
      </g>
    </g>
    <g id="Group_800" data-name="Group 800">
      <g id="Group_799" data-name="Group 799">
        <path id="Path_837" data-name="Path 837" d="M222.516,432.442h-.137a10.446,10.446,0,0,0,0,20.892h.137a10.446,10.446,0,0,0,0-20.892Z" fill="#ea3664"/>
      </g>
    </g>
    <g id="Group_802" data-name="Group 802">
      <g id="Group_801" data-name="Group 801">
        <path id="Path_838" data-name="Path 838" d="M188.583,432.441H149.392a10.446,10.446,0,0,0,0,20.892h39.191a10.446,10.446,0,0,0,0-20.892Z" fill="#ea3664"/>
      </g>
    </g>
    <g id="Group_804" data-name="Group 804">
      <g id="Group_803" data-name="Group 803">
        <path id="Path_839" data-name="Path 839" d="M222.516,398.667h-.137a10.446,10.446,0,0,0,0,20.892h.137a10.446,10.446,0,0,0,0-20.892Z" fill="#ea3664"/>
      </g>
    </g>
    <g id="Group_806" data-name="Group 806">
      <g id="Group_805" data-name="Group 805">
        <path id="Path_840" data-name="Path 840" d="M222.516,364.89h-.137a10.446,10.446,0,0,0,0,20.892h.137a10.446,10.446,0,0,0,0-20.892Z" fill="#ea3664"/>
      </g>
    </g>
    <g id="Group_808" data-name="Group 808">
      <g id="Group_807" data-name="Group 807">
        <path id="Path_841" data-name="Path 841" d="M71.085,160.124a26.212,26.212,0,0,0-5.223.525V138.187h13.58a10.446,10.446,0,1,0,0-20.892H65.862v-3.831h13.58a10.446,10.446,0,0,0,0-20.892H55.416A10.446,10.446,0,0,0,44.97,103.018V160.65a26.119,26.119,0,1,0,10.446,46.468,26.111,26.111,0,1,0,15.669-46.994ZM39.747,191.463a5.223,5.223,0,1,1,5.223-5.223A5.229,5.229,0,0,1,39.747,191.463Zm31.338,0a5.223,5.223,0,1,1,5.223-5.223A5.229,5.229,0,0,1,71.085,191.463Z" fill="#ea3664"/>
      </g>
    </g>
    <g id="Group_810" data-name="Group 810">
      <g id="Group_809" data-name="Group 809">
        <path id="Path_842" data-name="Path 842" d="M10.583,477.36h-.137a10.446,10.446,0,0,0,0,20.892h.137a10.446,10.446,0,0,0,0-20.892Z" fill="#ea3664"/>
      </g>
    </g>
    <g id="Group_812" data-name="Group 812">
      <g id="Group_811" data-name="Group 811">
        <path id="Path_843" data-name="Path 843" d="M501.554,353.05h-26.33V330.1a10.446,10.446,0,0,0-10.446-10.446H391.226A10.446,10.446,0,0,0,380.78,330.1V353.05H363.7l-51.285-21.369a6.378,6.378,0,0,1-3.935-5.9V309.511l27.3-15.657c.19-.109.377-.225.561-.346,13.672-9.029,22.651-25.087,24.016-42.954.021-.264.03-.531.03-.8v-8.671a33.85,33.85,0,0,0,0-64.392v-21.64a119.723,119.723,0,0,0-5.216-32.556V36.977a10.446,10.446,0,0,0-7.524-10.029,324.318,324.318,0,0,0-137.629-9.9,335.072,335.072,0,0,0-45.712,9.9,10.447,10.447,0,0,0-7.526,10.03V123.3c-2.982,9.333-5.317,30.749-5.317,31.754v21.64a33.85,33.85,0,0,0,0,64.392v8.671c0,.265.01.532.03.8,1.372,17.94,10.286,34,23.848,42.954q.28.184.572.352l27.462,15.7v16.217a6.378,6.378,0,0,1-3.935,5.9l-67.231,28.013c-17.6,7.332-29.882,26.672-29.882,47.033v70.632H44.379a10.446,10.446,0,0,0,0,20.892H501.554A10.446,10.446,0,0,0,512,487.8V363.494A10.446,10.446,0,0,0,501.554,353.05ZM338.41,141.542a72.394,72.394,0,0,1-96.271-19.252,304.145,304.145,0,0,1,94.35,10.541A82.928,82.928,0,0,1,338.41,141.542ZM177.68,44.917A313.389,313.389,0,0,1,213,37.724a303,303,0,0,1,121.289,7.189v65.735a323.4,323.4,0,0,0-124.261-6.3c-10.825,1.56-21.656,3.674-32.346,6.312ZM245.47,477.36H123.226V406.728c0-11.774,7.32-23.7,17.026-27.748l67.231-28.013a27.218,27.218,0,0,0,16.791-25.188v-4.274s16.6,9.176,21.2,10.342Zm-2.043-168.945c-.187-.123-.378-.241-.572-.352l-56.249-32.157c-7.983-5.406-13.282-15.29-14.243-26.566V232.292a10.446,10.446,0,0,0-10.446-10.446,12.952,12.952,0,0,1,0-25.9A10.446,10.446,0,0,0,172.363,185.5V157.813a10.474,10.474,0,0,0,.368-2.756q0-1.76.073-3.51a82.19,82.19,0,0,0,48.252-23.257A93.337,93.337,0,0,0,339.5,164.6v20.9a10.446,10.446,0,0,0,10.446,10.446,12.952,12.952,0,0,1,0,25.9A10.446,10.446,0,0,0,339.5,232.292v17.047c-.948,11.047-6.441,21.17-14.417,26.57L269,308.069c-.191.109-.377.225-.561.346A22.1,22.1,0,0,1,243.427,308.415Zm100.3,124.026H323.317a10.446,10.446,0,0,0,0,20.892h20.414v24.026H266.363v-145.5a44.336,44.336,0,0,0,13.3-5.816l7.931-4.547v4.287a27.217,27.217,0,0,0,16.792,25.189l39.349,16.395v65.078Zm57.942-91.894h52.659v12.5H401.673ZM491.108,477.36H364.624V373.943H491.108Z" fill="#ea3664"/>
      </g>
    </g>
    <g id="Group_814" data-name="Group 814">
      <g id="Group_813" data-name="Group 813">
        <path id="Path_844" data-name="Path 844" d="M460.56,398.666H460.4a10.446,10.446,0,0,0,0,20.892h.158a10.446,10.446,0,0,0,0-20.892Z" fill="#ea3664"/>
      </g>
    </g>
    <g id="Group_816" data-name="Group 816">
      <g id="Group_815" data-name="Group 815">
        <path id="Path_845" data-name="Path 845" d="M425.656,398.667H395.172a10.446,10.446,0,1,0,0,20.892h30.484a10.446,10.446,0,0,0,0-20.892Z" fill="#ea3664"/>
      </g>
    </g>
  </g>
</svg>
