<svg xmlns="http://www.w3.org/2000/svg" width="511.688" height="512" viewBox="0 0 511.688 512">
  <g id="dumbbell_1_" data-name="dumbbell (1)" transform="translate(-0.156 0)">
    <g id="Group_819" data-name="Group 819">
      <g id="Group_818" data-name="Group 818">
        <path id="Path_859" data-name="Path 859" d="M503.058,157.279,460.72,114.941l31.827-31.815a14.99,14.99,0,0,0,0-21.209L449.936,19.305a15.44,15.44,0,0,0-21.211,0L396.91,51.132,354.566,8.786A30,30,0,0,0,312.14,51.212L460.631,199.7a30,30,0,1,0,42.427-42.426Z" fill="#ea3664"/>
      </g>
    </g>
    <g id="Group_821" data-name="Group 821">
      <g id="Group_820" data-name="Group 820">
        <path id="Path_860" data-name="Path 860" d="M199.86,460.786,51.369,312.293A30,30,0,0,0,8.942,354.72l42.345,42.345L19.522,428.817a14.992,14.992,0,0,0,0,21.21l42.612,42.6a14.991,14.991,0,0,0,21.21,0L115.1,460.874l42.338,42.339a30,30,0,0,0,42.426-42.427Z" fill="#ea3664"/>
      </g>
    </g>
    <g id="Group_823" data-name="Group 823">
      <g id="Group_822" data-name="Group 822">
        <path id="Path_861" data-name="Path 861" d="M269.713,178.492l-91.066,91.376,63.64,63.64,91.066-91.378Z" fill="#ea3664"/>
      </g>
    </g>
    <g id="Group_825" data-name="Group 825">
      <g id="Group_824" data-name="Group 824">
        <path id="Path_862" data-name="Path 862" d="M460.632,242.131,269.713,51.212a30,30,0,0,0-42.426,42.427L418.206,284.558a30,30,0,1,0,42.426-42.427Z" fill="#ea3664"/>
      </g>
    </g>
    <g id="Group_827" data-name="Group 827">
      <g id="Group_826" data-name="Group 826">
        <path id="Path_863" data-name="Path 863" d="M284.714,418.36,93.794,227.44a30,30,0,1,0-42.425,42.427L242.288,460.786a30,30,0,1,0,42.426-42.426Z" fill="#ea3664"/>
      </g>
    </g>
  </g>
</svg>
