<svg xmlns="http://www.w3.org/2000/svg" width="512" height="481.956" viewBox="0 0 512 481.956">
  <g id="fan" transform="translate(0 -0.501)">
    <path id="Path_921" data-name="Path 921" d="M256.063,452.465a176.413,176.413,0,0,1-95.422-28.027l20.621-21.273a147.3,147.3,0,0,0,74.8,20.313V393.488a117.468,117.468,0,0,1-53.156-12.652l19.68-20.3a91.634,91.634,0,0,1-57.027-99.16l-27.48,6.8A116.748,116.748,0,0,1,149,225.153l-27.141-12.746a146.8,146.8,0,0,0-13.977,62.887v.352L8.61,300.215l-2.582,7.9C-5.046,341.949-.726,379.906,17.876,412.261s49.23,55.18,84.039,62.637l8.125,1.738,29.289-30.207A207.524,207.524,0,0,0,298.5,478.1l-6.117-29.359a178.587,178.587,0,0,1-36.316,3.727Zm0,0" fill="#f65a82"/>
    <path id="Path_922" data-name="Path 922" d="M317.707,275.293A61.611,61.611,0,1,1,256.1,213.68,61.608,61.608,0,0,1,317.707,275.293Zm0,0" fill="#f65a82"/>
    <path id="Path_923" data-name="Path 923" d="M174.293,117.895l8.25,28.769a148.06,148.06,0,0,0-37,29.918L167.9,196.567a117.67,117.67,0,0,1,23.211-19.992l7.8,27.219a91.387,91.387,0,0,1,114.367,0l44.563-155.48-5.559-6.168C328.477,15.685,293.41.5,256.094.5S183.719,15.685,159.91,42.146l-5.559,6.168L165.918,88.7a208.113,208.113,0,0,0-107.7,125l28.641,8.906A176.356,176.356,0,0,1,174.293,117.9Zm0,0" fill="#f65a82"/>
    <path id="Path_924" data-name="Path 924" d="M506.078,308.793l-2.559-7.906-40.875-10.238c.371-5.078.582-10.2.582-15.352A207.377,207.377,0,0,0,393.41,120.215l-19.891,22.441A177.368,177.368,0,0,1,433.238,275.3c0,2.656-.082,5.3-.2,7.945l-28.809-7.219c.012-.238.02-.488.02-.727A148.428,148.428,0,0,0,370.4,181.032l-23.133,19.082a118.336,118.336,0,0,1,26.758,68.355L346.68,261.61a91.658,91.658,0,0,1-57.3,99.012L401.61,477.027l8.125-1.719c34.828-7.355,65.527-30.109,84.211-62.406s23.109-70.242,12.133-104.109Zm0,0" fill="#f65a82"/>
  </g>
</svg>
