<svg xmlns="http://www.w3.org/2000/svg" viewBox="0 0 143.11 119.23"><defs><style>.cls-1{fill:#00464a;}.cls-2{fill:#0081d2;}.cls-3{fill:#dbba94;}.cls-4{fill:#f5d2a9;}.cls-5{fill:#c4a785;}</style></defs><g id="Layer_2" data-name="Layer 2"><g id="Objects"><rect class="cls-1" x="12.02" y="13.97" width="12.24" height="13.43"/><rect class="cls-1" x="10.49" y="12.48" width="15.3" height="4.87"/><polygon class="cls-2" points="101.4 33.62 101.4 40.8 0 40.8 0 33.67 49.78 0 101.4 33.62"/><polygon class="cls-2" points="97.03 36.19 97.03 40.82 49.78 10.05 4.37 40.77 4.37 36.19 49.83 5.44 97.03 36.19"/><polygon class="cls-3" points="97.03 40.82 97.03 44.73 88.6 39.25 80.99 34.29 74.17 29.85 66.56 24.89 59.74 20.45 52.13 15.5 49.78 13.97 47.52 15.5 40.19 20.45 33.63 24.89 26.3 29.85 19.74 34.29 12.41 39.25 4.37 44.68 4.37 40.77 6.62 39.25 13.94 34.29 20.51 29.85 27.84 24.89 34.41 20.45 41.73 15.5 49.78 10.05 58.15 15.5 65.75 20.45 72.57 24.89 80.18 29.85 87 34.29 94.61 39.25 97.03 40.82"/><polygon class="cls-4" points="97.03 44.73 97.03 119.23 4.37 119.23 4.37 44.68 49.78 13.97 97.03 44.73"/><rect class="cls-3" x="4.44" y="109.47" width="92.59" height="4.95"/><rect class="cls-3" x="4.44" y="100.07" width="92.59" height="4.95"/><rect class="cls-3" x="4.44" y="90.67" width="92.59" height="4.95"/><rect class="cls-3" x="4.44" y="81.28" width="92.59" height="4.95"/><rect class="cls-3" x="4.44" y="71.88" width="92.59" height="4.95"/><rect class="cls-3" x="4.44" y="62.48" width="92.59" height="4.95"/><rect class="cls-3" x="4.44" y="53.09" width="92.59" height="4.95"/><rect class="cls-3" x="4.44" y="43.69" width="92.59" height="4.95"/><rect class="cls-2" x="35.88" y="53.09" width="28.48" height="37.59"/><rect class="cls-1" x="38.86" y="56.07" width="22.52" height="31.62"/><rect class="cls-2" x="49.1" y="54.66" width="2.03" height="34.52"/><rect class="cls-2" x="37.29" y="70.91" width="25.46" height="2.03"/><polygon class="cls-5" points="117.12 90.67 97.03 90.67 97.03 119.23 143.1 119.23 117.12 90.67"/><rect class="cls-5" x="110.25" y="67.44" width="3.05" height="23.24"/><polygon class="cls-2" points="97.03 48.64 117.12 59.42 117.12 62.48 97.03 62.48 97.03 48.64"/><rect class="cls-5" x="97.03" y="62.48" width="20.09" height="4.95"/></g></g></svg>