<svg xmlns="http://www.w3.org/2000/svg" xmlns:xlink="http://www.w3.org/1999/xlink" width="36" height="37" viewBox="0 0 36 37"><defs><style>.a{fill:rgba(0,0,0,0.15);opacity:0;}.b{filter:url(#a);}</style><filter id="a" x="2.452" y="4.852" width="30.758" height="30.758" filterUnits="userSpaceOnUse"><feOffset dy="2" input="SourceAlpha"/><feGaussianBlur stdDeviation="2" result="b"/><feFlood flood-opacity="0.102"/><feComposite operator="in" in2="b"/><feComposite in="SourceGraphic"/></filter></defs><g transform="translate(0.406 0.079)"><rect class="a" width="36" height="37" rx="8" transform="translate(-0.406 -0.079)"/><g transform="translate(8.045 8.773)"><g class="b" transform="matrix(1, 0, 0, 1, -8.45, -8.85)"><path d="M13.17,0H5.588A5.6,5.6,0,0,0,0,5.588V13.17a5.6,5.6,0,0,0,5.588,5.588H13.17a5.6,5.6,0,0,0,5.588-5.588V5.588A5.6,5.6,0,0,0,13.17,0Zm3.7,13.17a3.7,3.7,0,0,1-3.7,3.7H5.588a3.7,3.7,0,0,1-3.7-3.7V5.588a3.7,3.7,0,0,1,3.7-3.7H13.17a3.7,3.7,0,0,1,3.7,3.7V13.17Z" transform="translate(8.45 8.85)"/></g><path d="M137.852,133a4.852,4.852,0,1,0,4.852,4.852A4.857,4.857,0,0,0,137.852,133Zm0,7.816a2.964,2.964,0,1,1,2.964-2.964A2.964,2.964,0,0,1,137.852,140.816Z" transform="translate(-128.472 -128.472)"/><circle cx="1.163" cy="1.163" r="1.163" transform="translate(13.078 3.401)"/></g></g></svg>