<svg xmlns="http://www.w3.org/2000/svg" width="37" height="37" viewBox="0 0 37 37"><defs><style>.a{fill:rgba(0,0,0,0.15);stroke:#000;stroke-width:1.5px;}.b{stroke:none;}.c{fill:none;}</style></defs><g transform="translate(-0.307 0.079)"><g class="a" transform="translate(0.307 -0.079)"><rect class="b" width="37" height="37" rx="8"/><rect class="c" x="0.75" y="0.75" width="35.5" height="35.5" rx="7.25"/></g><g transform="translate(6.971 10.348)"><path d="M166.976,48.884c0-.026.018-.052.017-.078l-7.064,6.806,7.055,6.589c0-.047-.009-.095-.009-.143Z" transform="translate(-143.845 -47.225)"/><path d="M24.908,126.9l-2.884,2.774a.754.754,0,0,1-1.037.008L18.112,127l-7.1,6.845a1.637,1.637,0,0,0,.552.11H31.441a1.635,1.635,0,0,0,.794-.219Z" transform="translate(-9.903 -117.466)"/><path d="M17.1,43.712,27.885,33.327a1.634,1.634,0,0,0-.833-.242H7.173a1.638,1.638,0,0,0-1.043.389Z" transform="translate(-5.514 -33.085)"/><path d="M0,52.1V65.021a1.641,1.641,0,0,0,.071.428L7.085,58.7Z" transform="translate(0 -50.188)"/></g></g></svg>