<svg xmlns="http://www.w3.org/2000/svg" xmlns:xlink="http://www.w3.org/1999/xlink" width="40" height="40" viewBox="0 0 40 40"><defs><style>.a{fill:rgba(0,0,0,0.15);}.b{filter:url(#a);}</style><filter id="a" x="4.229" y="6.796" width="30.85" height="30.889" filterUnits="userSpaceOnUse"><feOffset dy="2" input="SourceAlpha"/><feGaussianBlur stdDeviation="2" result="b"/><feFlood flood-opacity="0.102"/><feComposite operator="in" in2="b"/><feComposite in="SourceGraphic"/></filter></defs><g transform="translate(-657.961 -860.961)"><rect class="a" width="40" height="40" rx="8" transform="translate(657.961 860.961)"/><g transform="translate(668.19 871.757)"><g transform="translate(0)"><g class="b" transform="matrix(1, 0, 0, 1, -10.23, -10.8)"><path d="M18.894,13.863l-2.636-2.636a1.753,1.753,0,0,0-2.918.659,1.794,1.794,0,0,1-2.071,1.13,8.129,8.129,0,0,1-4.9-4.9A1.706,1.706,0,0,1,7.5,6.049,1.753,1.753,0,0,0,8.162,3.13L5.526.494a1.88,1.88,0,0,0-2.542,0L1.2,2.283c-1.789,1.883.188,6.873,4.613,11.3s9.414,6.5,11.3,4.613L18.894,16.4A1.88,1.88,0,0,0,18.894,13.863Z" transform="translate(9.69 10.8)"/></g></g></g></g></svg>