<svg xmlns="http://www.w3.org/2000/svg" width="631" height="585" viewBox="0 0 631 585"><defs><style>.a{fill:#e5e5e5;opacity:0.47;}.b{opacity:0.56;}.c{fill:#b6db58;}.d{fill:#006837;}.d,.o{opacity:0.2;}.e{fill:#282727;}.f,.r{opacity:0.5;}.g{fill:#282828;}.h{fill:#414042;}.i,.s{opacity:0.6;}.j{fill:#39383a;}.k{fill:#535254;}.l{fill:#777;}.m{fill:#00b4d5;}.n,.o,.p,.q,.r,.s,.t,.u,.v{fill:#fff;}.n{opacity:0.1;}.p{opacity:0.3;}.q{opacity:0.4;}.t{opacity:0.7;}.u{opacity:0.8;}.v{opacity:0.9;}.w{fill:#8cc63f;}.x{fill:#020202;}.y{fill:#58595b;}.z{fill:none;stroke:#8cc63f;stroke-linecap:round;stroke-miterlimit:10;stroke-width:4px;}.aa{fill:#2aa04b;}</style></defs><g transform="translate(-52 -60)"><path class="a" d="M8,0H631a0,0,0,0,1,0,0V585a0,0,0,0,1,0,0H8a8,8,0,0,1-8-8V8A8,8,0,0,1,8,0Z" transform="translate(52 60)"/><path class="b" d="M26.308-11.3,429.267-9.1l80.026,98.668L-31,84.867Z" transform="translate(129.854 513.432)"/><g transform="translate(70.854 62.317)"><g transform="translate(11.41 45.424)"><path class="c" d="M574.864,472.892H19.412c-6.6,0-9.485-2.524-7.26-6.686l60.89-101.663c1.686-2.165,6.53-3.923,10.764-3.923H481.083c4.282,0,9.568,1.758,11.8,3.923l88.722,103.1C584.277,470.967,581.43,472.892,574.864,472.892Z" transform="translate(-11.41 16.367)"/><path class="d" d="M44.864,438.677,81.08,377.4a6.363,6.363,0,0,1,5.478-3.134H468.2a6.41,6.41,0,0,1,4.868,2.249L525.014,437.8a6.363,6.363,0,0,1-4.856,10.477H50.354a6.375,6.375,0,0,1-5.49-9.6Z" transform="translate(-5.024 19.043)"/><path class="e" d="M308.919,311.63v10.142a8.994,8.994,0,0,1-8.982,8.994H216.214a8.994,8.994,0,0,1-8.994-8.994V311.63Z" transform="translate(26.977 6.763)"/><rect class="f" width="101.663" height="6.076" transform="translate(234.233 321.443)"/><path class="g" d="M520.758,304.133,55.08,303.32v12.307H520.758Z" transform="translate(-2.849 5.134)"/><rect class="h" width="25.643" height="91.342" transform="translate(272.542 314.613)"/><path class="i" d="M264.923,331.243l-25.643,7.571V308.47h25.643Z" transform="translate(33.262 6.143)"/><path class="j" d="M513.791,339.222H62.621c-5.358,0-8.6-2.189-7.176-4.892L121.1,204.082c1.363-2.7,5.3-4.892,8.779-4.892h293.2a12.81,12.81,0,0,1,9.568,4.892l87.6,130.249C522.02,337.034,519.15,339.222,513.791,339.222Z" transform="translate(-2.843 -15.28)"/><path class="k" d="M513.791,329.688H62.621c-5.358,0-8.6-2.189-7.176-4.892l49.444-98.075,16.206-32.15c1.363-2.7,5.3-4.892,8.779-4.892h293.2a12.81,12.81,0,0,1,9.568,4.892l29.542,43.954,58.056,86.27C522.02,327.5,519.15,329.688,513.791,329.688Z" transform="translate(-2.843 -17.144)"/><path class="l" d="M454.057,238.506c-9.126,10.561-21.325,20.476-36.575,29.279-76.068,43.907-199.38,43.907-275.436,0-20.823-11.96-35.941-26.1-45.366-41.084l16.206-32.15c1.363-2.7,5.3-4.892,8.779-4.892H414.922a12.81,12.81,0,0,1,9.568,4.892Z" transform="translate(5.307 -17.148)"/><path class="m" d="M148.8,197.589l-1.2,3.457-6.853,19.137a4.7,4.7,0,0,1-3.026,2.571,5.333,5.333,0,0,1-1.674.275H106.671c-2.033,0-3.074-1.28-2.32-2.847l5.131-10.645,5.789-11.96a5.669,5.669,0,0,1,4.7-2.847h26.516C148.317,194.742,149.357,196.022,148.8,197.589Z" transform="translate(6.762 -16.154)"/><path class="m" d="M180.62,197.587l-.108.49-4.724,22.151a3.17,3.17,0,0,1-.969,1.579,4.952,4.952,0,0,1-3.325,1.268H142.167c-2.033,0-3.253-1.28-2.727-2.847l3.983-11.769,3.684-10.872a4.712,4.712,0,0,1,4.282-2.847H177.9a3.17,3.17,0,0,1,1.866.562,2.2,2.2,0,0,1,.849,2.284Z" transform="translate(13.665 -16.152)"/><path class="m" d="M212.451,197.587l-1.328,19.065-.251,3.588c-.108,1.567-1.842,2.847-3.875,2.847H177.671c-2.033,0-3.445-1.28-3.134-2.847l2.739-14.1,1.662-8.54a3.947,3.947,0,0,1,3.875-2.847h26.5a2.871,2.871,0,0,1,3.134,2.835Z" transform="translate(20.561 -16.152)"/><path class="m" d="M245.962,220.229c.12,1.567-1.435,2.847-3.469,2.847H213.178c-2.033,0-3.588-1.28-3.588-2.847v-.49l.909-18.144.2-4.007a3.3,3.3,0,0,1,3.468-2.847h26.5a3.409,3.409,0,0,1,3.588,2.847l.586,7.93.921,12.331Z" transform="translate(27.441 -16.153)"/><path class="m" d="M278.381,223.076H248.994c-2.033,0-3.791-1.28-3.947-2.847l-.167-1.818-1.112-11.853-.837-8.97a2.787,2.787,0,0,1,3.062-2.847h26.5a4.066,4.066,0,0,1,3.947,2.847l.431,1.962,3.074,14.065,1.447,6.614C281.777,221.8,280.414,223.076,278.381,223.076Z" transform="translate(33.977 -16.154)"/><path class="m" d="M317.091,221.675a2.392,2.392,0,0,1-1.9,1.34,4.943,4.943,0,0,1-.753.06H285.1a4.461,4.461,0,0,1-4.354-2.847l-2.093-8.8-3.289-13.838c-.371-1.567.813-2.847,2.655-2.847h26.5a4.892,4.892,0,0,1,4.366,2.847l2.547,7.045,5.645,15.549A1.95,1.95,0,0,1,317.091,221.675Z" transform="translate(40.322 -16.152)"/><path class="m" d="M350.509,223.072H321.17a5.3,5.3,0,0,1-4.784-2.847l-.885-2.32-7.176-18.8-.586-1.519c-.586-1.531.359-2.787,2.129-2.835h26.624a5.825,5.825,0,0,1,4.784,2.847l4.856,9.568,6.6,13.049C353.535,221.792,352.542,223.072,350.509,223.072Z" transform="translate(46.648 -16.15)"/><path class="m" d="M386.581,223.08H357.242a6.543,6.543,0,0,1-4.868-2.392,3.077,3.077,0,0,1-.311-.49l-9.808-18.67-2.093-3.971c-.825-1.567,0-2.847,1.842-2.847h26.5a6.925,6.925,0,0,1,5.179,2.847l7.069,10.872,7.655,11.769C389.427,221.8,388.614,223.08,386.581,223.08Z" transform="translate(52.976 -16.158)"/><path class="m" d="M139.444,225.617,135.45,236.8l-4.1,11.458a4.784,4.784,0,0,1-3.3,2.583,6.59,6.59,0,0,1-1.806.263H93.564c-2.261,0-3.492-1.268-2.727-2.847l10.92-22.641a2.955,2.955,0,0,1,.5-.754,6.411,6.411,0,0,1,4.617-2.093h29.9C138.787,222.77,140.007,224.05,139.444,225.617Z" transform="translate(4.117 -10.657)"/><path class="m" d="M175.312,225.619l-1.686,7.882-3.134,14.663v.084c-.335,1.579-2.392,2.847-4.712,2.847H133.1c-2.272,0-3.672-1.268-3.146-2.847l2.512-7.439,5.143-15.2a3.432,3.432,0,0,1,.813-1.256,5.681,5.681,0,0,1,3.9-1.591h29.9C174.283,222.772,175.647,224.052,175.312,225.619Z" transform="translate(11.809 -10.659)"/><path class="m" d="M211.191,225.617v.49l-.933,13.432-.61,8.719c-.108,1.579-2.033,2.847-4.294,2.847H172.643c-2.261,0-3.851-1.268-3.588-2.847l2.225-11.446,2.177-11.195a4.007,4.007,0,0,1,3.289-2.739,4.785,4.785,0,0,1,1.017-.108H207.6C209.66,222.77,211.3,224.05,211.191,225.617Z" transform="translate(19.489 -10.657)"/><path class="m" d="M248.74,248.258c.12,1.579-1.627,2.847-3.887,2.847H212.189c-2.272,0-4.043-1.268-3.959-2.847l.347-6.889.658-13.013.132-2.739c.072-1.567,1.818-2.847,3.887-2.847h29.9a4.413,4.413,0,0,1,3.349,1.423,2.536,2.536,0,0,1,.61,1.423l.765,10.394.861,11.685h0Z" transform="translate(27.174 -10.657)"/><path class="m" d="M284.758,251.106h-32.7c-2.261,0-4.222-1.268-4.366-2.847v-.371L246.6,236.275l-.993-10.657a2,2,0,0,1,.144-.993,3.445,3.445,0,0,1,3.337-1.854h29.841c2.069,0,4.031,1.28,4.366,2.847l1.519,6.925L287.4,244.36l.849,3.9C288.574,249.838,287.019,251.106,284.758,251.106Z" transform="translate(34.501 -10.659)"/><path class="m" d="M324.844,251.1H292.18c-2.273,0-4.413-1.268-4.784-2.847l-1.2-5.179-2.847-11.96-1.3-5.5c-.371-1.567,1-2.847,3.074-2.847h29.9a5.251,5.251,0,0,1,4.784,2.847l1.543,4.27h0l4.7,13.013h0l1.938,5.358C328.48,249.837,327.117,251.1,324.844,251.1Z" transform="translate(41.635 -10.657)"/><path class="m" d="M364.955,251.1H332.292c-2.261,0-4.581-1.268-5.179-2.847l-3.014-7.894L319,227.04l-.538-1.423c-.6-1.567.6-2.847,2.667-2.847h29.841a6.255,6.255,0,0,1,5.191,2.847l4.366,8.635,6.937,13.695.156.311C368.412,249.836,367.216,251.1,364.955,251.1Z" transform="translate(48.755 -10.657)"/><path class="m" d="M405.059,251.112H372.4a6.734,6.734,0,0,1-5.6-2.847l-1.866-3.588-7.356-13.994-2.679-5.1c-.825-1.567.179-2.847,2.249-2.847h29.9a5.208,5.208,0,0,1,.61,0,7.368,7.368,0,0,1,4.976,2.811l6.542,10.047,8.193,12.594C408.336,249.844,407.332,251.112,405.059,251.112Z" transform="translate(55.871 -10.665)"/><path class="m" d="M116.448,279.132H80.459c-2.488,0-3.9-1.268-3.146-2.835l10.92-22.653c.753-1.567,3.229-2.835,5.538-2.835h33.19c2.3,0,3.708,1.268,3.146,2.835l-8.1,22.653C121.447,277.864,118.971,279.132,116.448,279.132Z" transform="translate(1.47 -5.16)"/><path class="m" d="M170.009,253.65l-.586,2.763-2.811,13.156-1.435,6.746c-.335,1.579-2.631,2.847-5.131,2.847H124.033c-2.488,0-4.09-1.268-3.588-2.847l7.655-22.641a4.39,4.39,0,0,1,2.619-2.392,6.819,6.819,0,0,1,2.512-.5h33.226C168.753,250.816,170.344,252.084,170.009,253.65Z" transform="translate(9.947 -5.166)"/><path class="m" d="M209.913,253.645l-.395,5.6-.849,12.2-.335,4.844c-.108,1.579-2.225,2.847-4.724,2.847H167.657c-2.5,0-4.282-1.268-3.971-2.847l.849-4.342,2.512-12.965,1.041-5.334c.3-1.567,2.392-2.835,4.712-2.835h33.13C208.238,250.81,210.02,252.078,209.913,253.645Z" transform="translate(18.435 -5.16)"/><path class="m" d="M251.516,276.293a1.639,1.639,0,0,1-.144.825c-.466,1.2-2.129,2.021-4.174,2.021h-36c-2.5,0-4.461-1.268-4.378-2.847l.179-3.588.61-12.092.347-7.009c.072-1.567,2.009-2.835,4.306-2.835h33.19c2.3,0,4.258,1.268,4.378,2.835v.2l.873,11.661Z" transform="translate(26.898 -5.168)"/><path class="m" d="M291.129,279.132h-36a5.311,5.311,0,0,1-4.461-1.938,1.986,1.986,0,0,1-.323-.909l-1-10.681-1.088-11.614v-.347c-.144-1.567,1.6-2.835,3.9-2.835h33.19a6.111,6.111,0,0,1,1.567.2,4.114,4.114,0,0,1,3.217,2.631L292,262.232l2.548,11.626.526,2.392C295.375,277.864,293.629,279.132,291.129,279.132Z" transform="translate(35.019 -5.16)"/><path class="m" d="M335.275,279.132H299.262c-2.5,0-4.784-1.268-5.191-2.847l-.837-3.528L290.459,261.1l-1.77-7.451c-.383-1.567,1.2-2.835,3.48-2.835h33.19a5.976,5.976,0,0,1,1.2.12h0a5.215,5.215,0,0,1,3.971,2.715l3.062,8.468,4.342,11.96.789,2.165C339.306,277.864,337.763,279.132,335.275,279.132Z" transform="translate(42.937 -5.16)"/><path class="m" d="M379.409,279.132H343.348c-2.5,0-5-1.268-5.609-2.847l-1.567-4.27-4.617-12.1-2.392-6.267c-.6-1.567.777-2.835,3.074-2.835h33.19c2.308,0,4.784,1.268,5.609,2.835l.909,1.794,10.549,20.847C383.284,277.864,381.9,279.132,379.409,279.132Z" transform="translate(50.855 -5.16)"/><path class="m" d="M423.546,279.136H387.533c-2.5,0-5.191-1.268-5.98-2.847l-11.9-22.641a1.758,1.758,0,0,1-.132-1.567,2.3,2.3,0,0,1,1.806-1.2,5.22,5.22,0,0,1,1-.1h33.178a7.834,7.834,0,0,1,5.98,2.835l14.723,22.641C427.241,277.868,426.045,279.136,423.546,279.136Z" transform="translate(58.77 -5.164)"/><path class="m" d="M106.718,307.162H67.368c-2.727,0-4.33-1.268-3.588-2.835L74.7,281.687c.754-1.579,3.421-2.847,5.98-2.847h36.527c2.536,0,4.126,1.268,3.588,2.847l-8.109,22.641C112.112,305.894,109.444,307.162,106.718,307.162Z" transform="translate(-1.179 0.335)"/><path class="m" d="M154.316,307.162h-39.35c-2.727,0-4.509-1.268-3.971-2.835l7.655-22.641c.526-1.579,3.014-2.847,5.55-2.847h36.527c2.536,0,4.306,1.268,3.971,2.847l-4.784,22.641C159.531,305.894,157.043,307.162,154.316,307.162Z" transform="translate(8.094 0.335)"/><path class="m" d="M201.934,307.162h-39.35c-2.727,0-4.688-1.268-4.389-2.835l4.4-22.641c.311-1.579,2.607-2.847,5.143-2.847h36.527c2.524,0,4.5,1.268,4.378,2.847l-1.579,22.641C207.005,305.894,204.613,307.162,201.934,307.162Z" transform="translate(17.36 0.335)"/><path class="m" d="M254.289,304.316c.12,1.579-2,2.847-4.784,2.847h-39.35c-2.727,0-4.88-1.268-4.784-2.847l1.2-22.641a2.835,2.835,0,0,1,1.782-2.189,6.663,6.663,0,0,1,2.942-.646h36.527c2.536,0,4.688,1.268,4.784,2.835l.12,1.555Z" transform="translate(26.614 0.335)"/><path class="m" d="M297.517,307.162H258.2c-2.727,0-5.047-1.268-5.2-2.847l-1.973-21.038-.155-1.6c-.144-1.567,1.782-2.835,4.318-2.835h36.5a6.972,6.972,0,0,1,4.055,1.2,2.919,2.919,0,0,1,1.2,1.6l4.94,22.641C302.181,305.895,300.244,307.162,297.517,307.162Z" transform="translate(35.533 0.335)"/><path class="m" d="M345.689,307.162H306.34c-2.727,0-5.239-1.268-5.609-2.835l-5.382-22.641c-.371-1.579,1.375-2.847,3.911-2.847h36.527c2.524,0,5.047,1.268,5.609,2.847l8.2,22.641C350.175,305.894,348.416,307.162,345.689,307.162Z" transform="translate(44.244 0.335)"/><path class="m" d="M393.866,307.162h-39.35c-2.727,0-5.43-1.268-5.98-2.835L339.9,281.687c-.6-1.579.969-2.847,3.492-2.847H379.92c2.536,0,5.239,1.268,5.98,2.847l11.47,22.641C398.148,305.894,396.581,307.162,393.866,307.162Z" transform="translate(52.963 0.335)"/><path class="m" d="M442.044,307.162h-39.35c-2.727,0-5.609-1.268-6.435-2.835l-11.9-22.641c-.825-1.579.55-2.847,3.086-2.847h36.527c2.536,0,5.418,1.268,6.435,2.847l14.723,22.641C446.171,305.894,444.771,307.162,442.044,307.162Z" transform="translate(61.656 0.335)"/><path class="n" d="M110.217,207.15l-5.131,10.645c-.754,1.567.287,2.847,2.32,2.847h9.568a70.924,70.924,0,0,1-6.758-13.491ZM410.34,251.32l-.155-.311q-2.392,1.6-4.928,3.158h2.392C409.945,254.166,411.141,252.9,410.34,251.32Zm5.514,10.884c-.8-1.567-3.3-2.835-5.609-2.835H396.166a186.842,186.842,0,0,1-19.794,9.1l4.629,12.1a212.581,212.581,0,0,0,34.434-15.8l1.34-.777Zm6.375-1.567c.61-.383,1.2-.777,1.806-1.2a2.3,2.3,0,0,0-1.806,1.2Zm20.2-31.958a7.368,7.368,0,0,0-4.976-2.811,107.072,107.072,0,0,1-22.725,21.9l1.866,3.588a6.734,6.734,0,0,0,5.6,2.847h9.389a127.43,127.43,0,0,0,17.343-15.441Zm-71.894,41.993a245.446,245.446,0,0,1-40.39,10.645l.837,3.528c.371,1.579,2.691,2.847,5.191,2.847H357.7q8.743-2.225,17.127-5.011ZM321.2,292.894H284.672c-2.536,0-4.461,1.268-4.318,2.835l.156,1.6a329.034,329.034,0,0,0,44.744-3.205,6.973,6.973,0,0,0-4.055-1.232Zm2.835-8.049-.526-2.392a294.922,294.922,0,0,1-43.847,3.337,5.31,5.31,0,0,0,4.461,1.938h36C322.622,287.691,324.368,286.423,324.033,284.845ZM273.19,295.729c-.108-1.567-2.261-2.835-4.784-2.835H231.867a6.662,6.662,0,0,0-2.942.646,324.979,324.979,0,0,0,44.433,3.744ZM227.908,281.3l-.179,3.588c-.084,1.579,1.878,2.847,4.377,2.847h36c2.045,0,3.708-.849,4.174-2.021a289.9,289.9,0,0,1-44.373-4.413Zm-65.95-21.935h-24.77a6.819,6.819,0,0,0-2.512.5c2.56,1.674,5.227,3.3,7.99,4.9A207.16,207.16,0,0,0,170.5,278.1l2.811-13.156q-5.825-2.6-11.386-5.574Zm-23.036-5.2h13.946a136.954,136.954,0,0,1-14.58-10.286l-2.512,7.439c-.562,1.579.837,2.847,3.11,2.847Zm-18.3-28.334H104.967a6.411,6.411,0,0,0-4.617,2.093A115.766,115.766,0,0,0,126.137,253.9a4.784,4.784,0,0,0,3.3-2.583l4.1-11.458a100.371,100.371,0,0,1-12.953-14.03Zm58.821,41.706L176.932,280.5c7.571,2.739,15.4,5.131,23.442,7.176h15.68c2.5,0,4.617-1.268,4.724-2.847l.335-4.844a233.459,233.459,0,0,1-41.706-12.451Z" transform="translate(6.026 -13.719)"/><path class="o" d="M433.745,220.228l-7.655-11.769a65.1,65.1,0,0,1-8.229,14.616h14.053C433.949,223.074,434.762,221.794,433.745,220.228Zm-114.4,53a260,260,0,0,1-42.627,3.373l1,10.681a1.986,1.986,0,0,0,.323.909,294.915,294.915,0,0,0,43.847-3.337Zm82.288-33.489a125.951,125.951,0,0,1-16.266,11.075Q380.019,253.9,374.3,256.6h29.315q2.536-1.567,4.928-3.158Zm33.6-11.482H413.7a87.807,87.807,0,0,1-7.87,7.942l7.356,13.994a107.069,107.069,0,0,0,22.725-21.9,5.214,5.214,0,0,0-.682-.024Zm-59.8,33.489c-2.3,0-3.672,1.268-3.074,2.835l2.392,6.267a186.817,186.817,0,0,0,19.794-9.1Zm-9.568,2.835a5.215,5.215,0,0,0-3.971-2.715h0a212.4,212.4,0,0,1-36.12,10.166l2.775,11.661a245.447,245.447,0,0,0,40.39-10.645Zm-95.886,11.865a255.162,255.162,0,0,1-43.057-4.856l-.622,12.152a289.891,289.891,0,0,0,44.373,4.366,1.638,1.638,0,0,0,.144-.825ZM168.763,261.8h-8.456q5.538,2.978,11.422,5.6l.586-2.763C172.65,263.07,171.059,261.8,168.763,261.8Zm.694-10.992a112.9,112.9,0,0,1-26.887-20.955,3.432,3.432,0,0,0-.813,1.256l-5.167,15.2a136.949,136.949,0,0,0,14.58,10.286h18.718c2.26,0,4.378-1.268,4.712-2.847v-.1C172.9,252.748,171.155,251.791,169.456,250.81Zm-36.264-22.545H118.972a100.373,100.373,0,0,0,12.953,14.03l3.995-11.183c.562-1.567-.658-2.847-2.727-2.847Zm3.588-5.466a59.8,59.8,0,0,1-11.6-28.059h-6.1a5.669,5.669,0,0,0-4.7,2.847l-5.789,11.96a70.923,70.923,0,0,0,6.782,13.491h19.735a5.335,5.335,0,0,0,1.686-.239Zm55.855,39h-9.1c-2.3,0-4.413,1.268-4.712,2.835l-1.041,5.334a233.457,233.457,0,0,0,41.67,12.463l.849-12.2a206.029,206.029,0,0,1-27.652-8.432Z" transform="translate(7.641 -16.152)"/><path class="p" d="M314.745,264.639a4.114,4.114,0,0,0-3.217-2.631,225.137,225.137,0,0,1-38.62,2.978L274,276.6a260.014,260.014,0,0,0,42.627-3.373Zm43.189-2.835h-33.19c-2.3,0-3.863,1.268-3.48,2.835l1.77,7.451a212.409,212.409,0,0,0,36.12-10.166,5.98,5.98,0,0,0-1.22-.12Zm1.256-8.049-1.938-5.358h0a162.189,162.189,0,0,1-22.031,8.2h20.907C358.389,256.6,359.752,255.333,359.19,253.755ZM394.6,231.114a6.255,6.255,0,0,0-5.191-2.847h-1.363a103.084,103.084,0,0,1-19.519,14.353q-2.918,1.686-5.98,3.253l3.014,7.894c.6,1.579,2.918,2.847,5.179,2.847h.933q5.717-2.715,11.063-5.789a125.951,125.951,0,0,0,16.242-11.063Zm8.109-2.847c-2.069,0-3.074,1.28-2.249,2.847l2.679,5.1a87.8,87.8,0,0,0,7.87-7.942Zm13.647-30.678a6.925,6.925,0,0,0-5.179-2.847h-4.33c-1.256,8.911-5.191,17.713-11.8,25.978a6.542,6.542,0,0,0,4.868,2.392H415.2A65.1,65.1,0,0,0,423.43,208.5ZM266.378,264.842a223.65,223.65,0,0,1-29.65-3.038h-7.87c-2.3,0-4.234,1.268-4.306,2.835l-.347,7.009a255.15,255.15,0,0,0,43.057,4.856ZM214,261.8H189.927a206.022,206.022,0,0,0,27.664,8.432l.395-5.6C218.093,263.072,216.311,261.8,214,261.8Zm-33.071-19.2-.5-.3-2.225,11.446c-.3,1.579,1.292,2.847,3.588,2.847H214.23a153.429,153.429,0,0,1-33.286-13.994ZM161.4,228.255h-17.63a5.682,5.682,0,0,0-3.923,1.6,112.894,112.894,0,0,0,26.863,20.955c1.7.981,3.445,1.938,5.2,2.859L175.048,239a96.3,96.3,0,0,1-13.671-10.728Zm-15.943-5.191H156.4a61.729,61.729,0,0,1-9.688-14.616l-3.983,11.769c-.49,1.579.706,2.859,2.739,2.859ZM142.6,194.73H122.47a59.8,59.8,0,0,0,11.6,28.059,4.7,4.7,0,0,0,3.026-2.572l6.853-19.137a46.982,46.982,0,0,1-1.34-6.339Z" transform="translate(10.362 -16.154)"/><path class="q" d="M139.585,194.746h-.275a46.987,46.987,0,0,0,1.34,6.3l1.2-3.457C142.456,196.026,141.415,194.746,139.585,194.746Zm220.777,33.489q-2.954,2.189-6.279,4.27l5.1,13.324q3.074-1.555,5.98-3.253a103.089,103.089,0,0,0,19.519-14.353ZM385.73,220.2l-6.6-13.049a57.671,57.671,0,0,1-12.487,15.9h16.852c2.033.036,3.026-1.244,2.237-2.811Zm-2.392-25.488a38.923,38.923,0,0,1-1.77,6.817l9.808,18.67a3.073,3.073,0,0,0,.311.49c6.614-8.265,10.549-17.067,11.8-25.978Zm-34.1,40.665h0a138.094,138.094,0,0,1-35.092,13.156l1.2,5.179c.371,1.579,2.512,2.847,4.784,2.847h11.757a162.183,162.183,0,0,0,22.031-8.2Zm-40.163,18.371-.849-3.9a191,191,0,0,1-39.709,3.588v.371c.143,1.579,2.105,2.847,4.365,2.847H305.56c2.3-.048,3.851-1.316,3.516-2.894Zm-2.392,8.049H273.47c-2.3,0-4.043,1.268-3.9,2.835v.347a225.143,225.143,0,0,0,38.656-2.942,6.111,6.111,0,0,0-1.567-.227Zm-43.6,2.835c-.12-1.567-2.081-2.835-4.378-2.835H233.426a223.655,223.655,0,0,0,29.71,3.038Zm-.849-11.446h0a179.753,179.753,0,0,1-40.115-6.327l-.347,6.889c-.084,1.579,1.686,2.847,3.959,2.847H258.4c2.261,0,4.007-1.268,3.887-2.847ZM159.5,194.734h-8.085a4.712,4.712,0,0,0-4.282,2.847l-3.684,10.872a61.727,61.727,0,0,0,9.688,14.616h18.383a4.952,4.952,0,0,0,3.325-1.268c-8.7-8.36-13.8-17.63-15.369-27.054Zm10.848,33.489H158.076a96.305,96.305,0,0,0,13.659,10.764l1.686-7.882c.371-1.555-.993-2.835-3.1-2.835Zm21.529,6.148a98.007,98.007,0,0,1-9.245-5.98,4.007,4.007,0,0,0-3.289,2.739l-2.177,11.195.5.3a153.428,153.428,0,0,0,33.262,13.994h.239c2.26,0,4.186-1.268,4.294-2.847l.61-8.719a127.262,127.262,0,0,1-24.22-10.633Z" transform="translate(13.664 -16.158)"/><path class="r" d="M302.338,238.041a154.527,154.527,0,0,1-38.213,3.732l1.088,11.614a191,191,0,0,0,39.709-3.588Zm68.629-40.45a5.825,5.825,0,0,0-4.784-2.847h-6.351c-1.65,8.133-6.53,16.087-14.639,23.167l.885,2.32a5.3,5.3,0,0,0,4.784,2.847h12.487a57.673,57.673,0,0,0,12.487-15.9Zm-18.06,30.678c-2.069,0-3.265,1.28-2.667,2.847l.538,1.423q3.325-2.081,6.279-4.27Zm-8.528,2.847a5.251,5.251,0,0,0-4.784-2.847h-9.939a111.733,111.733,0,0,1-21.684,8.372l2.847,11.96a138.1,138.1,0,0,0,35.092-13.156Zm-5.837-8.1a2.392,2.392,0,0,0,1.9-1.34c-.622.454-1.256.885-1.9,1.34Zm-80.505,18.491a142.006,142.006,0,0,1-38.6-7.655l-.658,13.013a179.753,179.753,0,0,0,40.115,6.327Zm-81.57-46.2a3.17,3.17,0,0,0-1.866-.562H156.17c1.567,9.425,6.674,18.694,15.345,27.066a3.17,3.17,0,0,0,.969-1.579l4.724-22.151c-.287-.921-.538-1.83-.742-2.775Zm4.4,10.764-2.739,14.1c-.311,1.567,1.1,2.847,3.134,2.847H197.72a55.9,55.9,0,0,1-16.852-16.888Zm25.655,22.139H180.318a4.785,4.785,0,0,0-1.017.108,98.014,98.014,0,0,0,9.245,5.98,127.261,127.261,0,0,0,24.2,10.621l.933-13.432a64,64,0,0,1-7.152-3.217ZM378.011,194.72c-1.842,0-2.667,1.28-1.842,2.847l2.093,3.971a38.92,38.92,0,0,0,1.77-6.817Z" transform="translate(16.969 -16.156)"/><path class="s" d="M173.14,195.3c.2.933.455,1.854.742,2.775l.108-.49A2.2,2.2,0,0,0,173.14,195.3Zm124.388,35.809c-.335-1.567-2.3-2.847-4.366-2.847h-6.447a122.355,122.355,0,0,1-26.767,1.854,2,2,0,0,0-.144.993l.993,10.657a154.53,154.53,0,0,0,38.213-3.732Zm8.934-2.847c-2.069,0-3.445,1.28-3.074,2.847l1.3,5.5a111.734,111.734,0,0,0,21.684-8.372Zm29.9-33.489h-.12a25.232,25.232,0,0,1-1.543,4.354l7.176,18.8c8.109-7.081,12.989-15.034,14.64-23.167Zm.742,25.488-5.645-15.549a49.3,49.3,0,0,1-15.549,13.372,77.1,77.1,0,0,1-10.633,5.071h29.159a4.946,4.946,0,0,0,.753-.06c.646-.431,1.28-.885,1.9-1.34a1.949,1.949,0,0,0,.012-1.531Zm-83.161,10.884a2.536,2.536,0,0,0-.61-1.423c-3.588-.323-7.057-.8-10.5-1.423H220.109c-2.069,0-3.815,1.28-3.887,2.847l-.132,2.739a142.008,142.008,0,0,0,38.6,7.655Zm-37.077-11.374v.49c-.084,1.567,1.5,2.847,3.588,2.847h3.935a80.7,80.7,0,0,1-7.571-3.373ZM193.305,194.74H183.1a3.947,3.947,0,0,0-3.875,2.847l-1.662,8.54a55.9,55.9,0,0,0,16.852,16.948h12.869c2.033,0,3.768-1.28,3.875-2.847l.251-3.588C201.39,210.348,195.362,202.682,193.305,194.74Zm13.551,33.489h-3.588q3.463,1.794,7.176,3.337v-.49c.048-1.531-1.591-2.811-3.612-2.811Z" transform="translate(20.296 -16.152)"/><path class="t" d="M206.278,194.742H190c2.081,7.942,8.109,15.548,18.108,21.911l1.328-19.065a2.87,2.87,0,0,0-3.158-2.847Zm119.329,2.847a4.892,4.892,0,0,0-4.366-2.847h-8.7c-2.009,5.526-6.722,10.764-14.137,15.07-.981.574-2,1.112-3.038,1.615l2.093,8.8a4.461,4.461,0,0,0,4.354,2.847h.168a77.093,77.093,0,0,0,10.633-5.071,49.3,49.3,0,0,0,15.548-13.372ZM291.819,220.23l-1.447-6.614A83.986,83.986,0,0,1,255.3,218.4l.167,1.818c.156,1.567,1.914,2.847,3.947,2.847h29.339c2.033.012,3.4-1.268,3.062-2.835Zm-31.839,8.037a3.445,3.445,0,0,0-3.337,1.854,122.352,122.352,0,0,0,26.767-1.854ZM249.646,217.85a68.629,68.629,0,0,1-25.117-8.037,37.281,37.281,0,0,1-10.107-8.217l-.909,18.144a80.708,80.708,0,0,0,7.439,3.337h25.4c2.033,0,3.588-1.28,3.468-2.847Zm-2.966,10.417H239.5c3.445.622,6.961,1.1,10.5,1.423a4.413,4.413,0,0,0-3.325-1.423Zm84.129-30.678.586,1.519a25.226,25.226,0,0,0,1.543-4.354c-1.806.048-2.715,1.3-2.129,2.835Z" transform="translate(23.601 -16.154)"/><path class="u" d="M283.295,199.547a29.426,29.426,0,0,1-3.086,2.057c-8.145,4.7-19.567,6.351-30.021,4.952l1.112,11.853a83.986,83.986,0,0,0,35.068-4.784Zm-38.572,5.98a38.534,38.534,0,0,1-10-3.911,20.991,20.991,0,0,1-7.547-6.865H214.092a3.3,3.3,0,0,0-3.469,2.847l-.2,4.007a37.281,37.281,0,0,0,10.107,8.217,68.627,68.627,0,0,0,25.117,8.037Zm46.012-10.764c-1.842,0-3.026,1.28-2.655,2.847l3.289,13.838c1.041-.5,2.057-1.041,3.038-1.615,7.415-4.282,12.128-9.568,14.137-15.07Z" transform="translate(27.604 -16.151)"/><path class="v" d="M241.39,197.587l.586,7.93a38.536,38.536,0,0,1-10-3.911,20.991,20.991,0,0,1-7.547-6.865h13.42A3.409,3.409,0,0,1,241.39,197.587Z" transform="translate(30.351 -16.153)"/><path class="v" d="M276.914,199.55a29.418,29.418,0,0,1-3.086,2.057c-8.145,4.7-19.567,6.351-30.021,4.952l-.837-8.97a2.787,2.787,0,0,1,3.062-2.847h26.5a4.066,4.066,0,0,1,3.947,2.847Z" transform="translate(33.985 -16.154)"/><path class="w" d="M347.252,129.871a2.392,2.392,0,0,1-1.686-4.09l5.071-5.071a2.392,2.392,0,1,1,3.385,3.373l-5.071,5.083A2.392,2.392,0,0,1,347.252,129.871Z" transform="translate(53.959 -30.82)"/><path class="w" d="M257.172,234.983a2.392,2.392,0,0,1-1.686-4.09l10.764-10.764a2.393,2.393,0,0,1,3.385,3.385l-10.764,10.764A2.392,2.392,0,0,1,257.172,234.983ZM278.7,213.454a2.392,2.392,0,0,1-1.7-4.078l10.764-10.764A2.393,2.393,0,0,1,291.152,202L280.387,212.76a2.392,2.392,0,0,1-1.65.658Zm21.529-21.529a2.392,2.392,0,0,1-1.7-4.078L309.3,177.082a2.393,2.393,0,0,1,3.385,3.385l-10.764,10.764a2.392,2.392,0,0,1-1.627.634ZM321.759,170.4a2.388,2.388,0,0,1-1.686-4.079l10.764-10.764a2.392,2.392,0,1,1,3.385,3.373l-10.764,10.764a2.392,2.392,0,0,1-1.627.622Zm21.529-21.529a2.392,2.392,0,0,1-1.7-4.078l10.764-10.764a2.393,2.393,0,0,1,3.385,3.385l-10.764,10.764a2.392,2.392,0,0,1-1.579.586Z" transform="translate(36.3 -28.192)"/><path class="w" d="M244.807,234.153l-6.758-6.77A2.392,2.392,0,1,1,241.422,224l3.385,3.385L248.192,224a2.392,2.392,0,0,1,3.373,3.385Z" transform="translate(32.866 -10.57)"/><path class="w" d="M246.632,234.974a2.392,2.392,0,0,1-1.7-.694l-10.764-10.764a2.393,2.393,0,0,1,3.385-3.385L248.318,230.9a2.386,2.386,0,0,1-1.686,4.079Zm-21.612-21.6a2.392,2.392,0,0,1-1.686-.706L212.568,201.9a2.392,2.392,0,0,1,3.373-3.385l10.764,10.764a2.4,2.4,0,0,1-1.686,4.09Zm-21.6-21.6a2.392,2.392,0,0,1-1.7-.706L190.956,180.3a2.393,2.393,0,0,1,3.385-3.385l10.764,10.764a2.392,2.392,0,0,1-1.686,4.09Zm-21.6-21.6a2.392,2.392,0,0,1-1.686-.706L169.367,158.7a2.393,2.393,0,0,1,3.385-3.385l10.764,10.764a2.392,2.392,0,0,1-1.686,4.09Zm-21.6-21.624a2.392,2.392,0,0,1-1.7-.694L147.755,137.09a2.393,2.393,0,1,1,3.385-3.385L161.9,144.469a2.386,2.386,0,0,1-1.686,4.078Z" transform="translate(15.182 -28.255)"/><path class="w" d="M141.225,129.617a2.392,2.392,0,0,1-1.686-.706l-5.083-5.071a2.393,2.393,0,1,1,3.385-3.385l5.083,5.083a2.392,2.392,0,0,1-1.7,4.078Z" transform="translate(12.575 -30.852)"/><path class="x" d="M215.9,323.146a3.038,3.038,0,1,1-3.038-3.026,3.038,3.038,0,0,1,3.038,3.026Z" transform="translate(27.486 8.427)"/><path class="y" d="M215.8,322.847a2.739,2.739,0,1,1-2.739-2.727,2.739,2.739,0,0,1,2.739,2.727Z" transform="translate(27.584 8.427)"/><path class="x" d="M290.222,323.146a3.026,3.026,0,1,1-3.026-3.026A3.026,3.026,0,0,1,290.222,323.146Z" transform="translate(42.062 8.427)"/><path class="y" d="M290.124,322.847a2.727,2.727,0,1,1-2.727-2.727A2.727,2.727,0,0,1,290.124,322.847Z" transform="translate(42.16 8.427)"/><path class="h" d="M218.214,384.84h80.039a10.214,10.214,0,0,1,10.214,10.214H208A10.214,10.214,0,0,1,218.214,384.84Z" transform="translate(27.13 21.115)"/><path class="i" d="M308.467,393.952H208a10.2,10.2,0,0,1,.61-3.492h99.271A10.2,10.2,0,0,1,308.467,393.952Z" transform="translate(27.13 22.217)"/><path class="h" d="M194.866,393.38H330.76a10.214,10.214,0,0,1,10.214,10.214v5.681H184.64v-5.681a10.214,10.214,0,0,1,10.226-10.214Z" transform="translate(22.55 22.789)"/><rect class="i" width="156.346" height="3.492" transform="translate(207.19 428.572)"/><path class="o" d="M260.34,329.77l-7.26,2.524v63.342h7.152Z" transform="translate(35.967 10.319)"/><circle class="z" cx="40.881" cy="40.881" r="40.881" transform="matrix(0.631, -0.776, 0.776, 0.631, 63.936, 63.424)"/><circle class="z" cx="40.881" cy="40.881" r="40.881" transform="matrix(0.159, -0.987, 0.987, 0.159, 381.293, 91.383)"/><path class="aa" d="M118.7,87.03a12.642,12.642,0,0,0-9.879,0l5-19.89Z" transform="translate(7.686 -41.167)"/><path class="aa" d="M108.82,103.23a12.642,12.642,0,0,0,9.879,0l-4.88,19.89Z" transform="translate(7.686 -34.092)"/><path class="aa" d="M111.88,85.433a12.618,12.618,0,0,0-6.985,6.985L94.31,74.86Z" transform="translate(4.842 -39.653)"/><path class="aa" d="M116.91,104.445a12.726,12.726,0,0,0,6.985-6.985l10.573,17.558Z" transform="translate(9.272 -35.223)"/><path class="aa" d="M106.48,89.37a12.642,12.642,0,0,0,0,9.879L86.59,94.31Z" transform="translate(3.329 -36.809)"/><path class="aa" d="M122.68,99.249a12.642,12.642,0,0,0,0-9.879l19.89,4.94Z" transform="translate(10.404 -36.809)"/><path class="aa" d="M104.881,97.46a12.726,12.726,0,0,0,7,6.985L94.32,115.018Z" transform="translate(4.844 -35.223)"/><path class="aa" d="M123.895,92.418a12.618,12.618,0,0,0-6.985-6.985L134.468,74.86Z" transform="translate(9.272 -39.653)"/><circle class="w" cx="11.004" cy="11.004" r="11.004" transform="translate(110.443 46.497)"/><path class="aa" d="M382.915,126.561H357.523a3.194,3.194,0,0,1-3.194-3.193V77.643a3.193,3.193,0,0,1,3.194-3.169h1.938v-3.66a3.205,3.205,0,0,1,3.193-3.193H377.76a3.205,3.205,0,0,1,3.193,3.193v3.66h1.95a3.205,3.205,0,0,1,3.205,3.17v45.7a3.205,3.205,0,0,1-3.193,3.217ZM357.523,77.272a.4.4,0,0,0-.395.395v45.7a.4.4,0,0,0,.395.395H382.9a.383.383,0,0,0,.383-.395V77.643a.383.383,0,0,0-.383-.395h-4.784V70.789a.383.383,0,0,0-.395-.383H362.666a.383.383,0,0,0-.383.383v6.459Z" transform="translate(55.816 -41.073)"/><rect class="aa" width="22.187" height="6.148" transform="translate(414.942 73.97)"/><rect class="aa" width="22.187" height="6.148" transform="translate(414.942 66.029)"/><rect class="aa" width="22.187" height="6.148" transform="translate(414.942 58.087)"/><rect class="aa" width="22.187" height="6.148" transform="translate(414.942 50.145)"/><rect class="aa" width="22.187" height="6.148" transform="translate(414.942 42.203)"/><path class="w" d="M392.8,120.24a19.96,19.96,0,0,1-6.064,4.784,12.81,12.81,0,0,1-9.832.634c-2.715-.9-5.286-3.7-8.372-2.655-2.021.706-3.409,2.715-5.478,3.289a10.094,10.094,0,0,0-1.591-1.973,9.975,9.975,0,0,0,4.366-2.751,5.562,5.562,0,0,0,1.447-1.722c.646-1.387-.443-2.392-1.041-3.588a15.44,15.44,0,0,1-1.411-4.019c-.084-.407-.144-.825-.2-1.2-.586-5.107,2.237-10.31,6.148-13.838,4.1-3.684,9.413-5.071,14.544-5.55,2.5-.227,4.916-.454,7.176-2.009a6.435,6.435,0,0,0,2.751-5.705c.06.383.849,1.2,1.053,1.519a25.919,25.919,0,0,1,3.385,10.119C400.8,104.057,398.454,113.745,392.8,120.24Z" transform="translate(57.214 -37.873)"/><path class="w" d="M162.82,166.448h0a2.536,2.536,0,0,1,2.536-2.536h10.465a1.423,1.423,0,0,0,1.423-1.423V152.036a2.536,2.536,0,0,1,2.536-2.536h0a2.536,2.536,0,0,1,2.536,2.536v15.549a1.435,1.435,0,0,1-1.435,1.423H165.332a2.536,2.536,0,0,1-2.512-2.56Z" transform="translate(18.273 -25.021)"/><path class="w" d="M322.608,170.564h0a2.536,2.536,0,0,1-2.536-2.536V157.575a1.423,1.423,0,0,0-1.423-1.423H308.2a2.536,2.536,0,0,1-2.536-2.536h0a2.536,2.536,0,0,1,2.536-2.536h15.548a1.423,1.423,0,0,1,1.423,1.423v15.549A2.536,2.536,0,0,1,322.608,170.564Z" transform="translate(46.275 -24.711)"/></g></g></g></svg>