<svg xmlns="http://www.w3.org/2000/svg" width="70" height="70" viewBox="0 0 70 70"><defs><style>.a,.b{fill:#e5b001;}.a{opacity:0.15;}</style></defs><g transform="translate(-136 -988)"><circle class="a" cx="35" cy="35" r="35" transform="translate(136 988)"/><g transform="translate(151.611 1001.436)"><g transform="translate(0 3.173)"><path class="b" d="M61.4,33.937v3.991h6.78L67.05,33.937Z" transform="translate(-38.725 -22.576)"/><path class="b" d="M61.486,52.238H69.4l-1.133-3.989H61.486Z" transform="translate(-38.779 -31.602)"/><path class="b" d="M29.323,27.139H4.686a1.194,1.194,0,0,0-1.3,1.044L0,45.719a1.192,1.192,0,0,0,1.3,1.045H33.615a1.193,1.193,0,0,0,1.3-1.045L30.617,28.183A1.192,1.192,0,0,0,29.323,27.139ZM1.555,45.51,4.945,28.393H29.063L33.357,45.51Z" transform="translate(0 -18.288)"/><path class="b" d="M20.7,33.937H14.6l-1.131,3.991H20.7Z" transform="translate(-8.493 -22.576)"/><rect class="b" width="7.23" height="3.99" transform="translate(13.857 11.361)"/><path class="b" d="M10.487,52.238H18.85V48.249H11.618Z" transform="translate(-6.614 -31.602)"/><rect class="b" width="7.232" height="3.99" transform="translate(13.884 16.647)"/><path class="b" d="M8.042,66.662h9.265V62.671H9.172Z" transform="translate(-5.072 -40.698)"/><rect class="b" width="7.232" height="3.991" transform="translate(13.884 21.973)"/><path class="b" d="M61.486,62.671v3.991h9.04L69.4,62.671Z" transform="translate(-38.779 -40.698)"/><path class="b" d="M40.2,82.793H37.342v5.68H33.983v1.934h9.663V88.473H40.2Z" transform="translate(-21.433 -53.389)"/><path class="b" d="M71.494,18.926a1.191,1.191,0,0,1,1.294,1.045L74,24.9A5.334,5.334,0,1,0,65.6,18.928h5.892Z" transform="translate(-41.375 -10.918)"/><path class="b" d="M101.084,28.254l-2.937-.789a.125.125,0,0,0-.157.122v1.579a.124.124,0,0,0,.048.1.12.12,0,0,0,.109.02l2.937-.789A.132.132,0,0,0,101.084,28.254Z" transform="translate(-61.802 -18.491)"/><path class="b" d="M76.77,6.348h1.581a.123.123,0,0,0,.1-.049.131.131,0,0,0,.023-.107l-.791-2.937a.129.129,0,0,0-.24,0l-.79,2.937a.117.117,0,0,0,.022.107A.122.122,0,0,0,76.77,6.348Z" transform="translate(-48.341 -3.173)"/><path class="b" d="M91.509,13.746a.125.125,0,0,0,.2-.026l1.516-2.635a.13.13,0,0,0-.172-.17l-2.633,1.518a.124.124,0,0,0-.062.09.127.127,0,0,0,.035.1Z" transform="translate(-56.987 -8.047)"/><path class="b" d="M90.289,41.237a.127.127,0,0,0-.09-.061.123.123,0,0,0-.1.035L89.07,42.236l.092.381,2.475,1.425c.1.055.227-.074.172-.171Z" transform="translate(-56.176 -27.141)"/><path class="b" d="M60.429,14.144a.131.131,0,0,0,.1-.039l1.117-1.116a.126.126,0,0,0,.037-.1.1.1,0,0,0-.053-.084l-2.436-1.32c-.088-.048-.22.08-.171.171l1.321,2.436A.106.106,0,0,0,60.429,14.144Z" transform="translate(-37.219 -8.407)"/></g></g></g></svg>