<svg xmlns="http://www.w3.org/2000/svg" width="8.872" height="8.872" viewBox="0 0 8.872 8.872"><defs><style>.a{fill:none;}.b,.c{stroke:none;}.c{fill:#f1b122;}</style></defs><g class="a" transform="translate(0 -0.783)"><path class="b" d="M8.872,4.172,5.807,3.7,4.436.783,3.065,3.7,0,4.172,2.218,6.445l-.524,3.21L4.436,8.139,7.178,9.655l-.524-3.21Z"/><path class="c" d="M 4.435973167419434 3.136579036712646 L 3.970510005950928 4.128279685974121 L 3.743789672851563 4.611299991607666 L 3.216330051422119 4.691909790039063 L 2.074783802032471 4.866371154785156 L 2.93373966217041 5.746719837188721 L 3.286219596862793 6.107979774475098 L 3.204939842224121 6.606109619140625 L 3.012844562530518 7.783431529998779 L 3.952179908752441 7.264179706573486 L 4.435969829559326 6.996739864349365 L 4.919759750366211 7.264179706573486 L 5.859095096588135 7.783431529998779 L 5.666999816894531 6.606109619140625 L 5.585720062255859 6.107979774475098 L 5.938199996948242 5.746719837188721 L 6.797155380249023 4.866371631622314 L 5.655610084533691 4.691909790039063 L 5.128159523010254 4.611299991607666 L 4.901439666748047 4.128279685974121 L 4.435973167419434 3.136579036712646 M 4.435969829559326 0.7829999923706055 L 5.806689739227295 3.703389644622803 L 8.871939659118652 4.171849727630615 L 6.653949737548828 6.445079803466797 L 7.177680015563965 9.654939651489258 L 4.435969829559326 8.139359474182129 L 1.694259643554688 9.654939651489258 L 2.217989921569824 6.445079803466797 L 0 4.171849727630615 L 3.06525993347168 3.703389644622803 L 4.435969829559326 0.7829999923706055 Z"/></g></svg>