<svg xmlns="http://www.w3.org/2000/svg" width="512" height="392.487" viewBox="0 0 512 392.487">
  <g id="swimmer" transform="translate(0 -59.757)">
    <path id="Path_889" data-name="Path 889" d="M361.88,321.716l-24.6-39.647a67.128,67.128,0,1,0-8.609-13.876l-59.5-95.9,88.3-25.481a44.382,44.382,0,0,0-24.609-85.284L199.177,100.1a54.394,54.394,0,0,0-31.151,80.971l40.406,65.123-70.863,43.969c85.253,1.959,146.851,27.916,224.311,31.553Z" fill="#8b8b8b"/>
    <path id="Path_890" data-name="Path 890" d="M19.1,365.89c193.8-55.09,266.988,56.126,481.68.085a15,15,0,1,0-7.577-29.027c-206.264,53.844-279.556-57.55-482.306.085a15,15,0,1,0,8.2,28.857Z" fill="#8b8b8b"/>
    <path id="Path_891" data-name="Path 891" d="M493.208,406.948c-206.643,53.942-279.154-57.666-482.306.085a15,15,0,1,0,8.2,28.857c193.8-55.09,266.988,56.126,481.68.085a15,15,0,1,0-7.577-29.027Z" fill="#8b8b8b"/>
  </g>
</svg>
