<svg xmlns="http://www.w3.org/2000/svg" width="512" height="377.87" viewBox="0 0 512 377.87">
  <g id="television" transform="translate(0 -67.065)">
    <path id="XMLID_1672_" d="M494.6,67.065H17.4A17.4,17.4,0,0,0,0,84.464V343.835a17.4,17.4,0,0,0,17.4,17.4H494.6a17.4,17.4,0,0,0,17.4-17.4V84.464a17.4,17.4,0,0,0-17.4-17.4Z" fill="#f65a82"/>
    <path id="XMLID_1626_" d="M355.423,414.75H296.354V391.419H215.646V414.75h-59.07a15.093,15.093,0,1,0,0,30.186H355.423a15.093,15.093,0,0,0,0-30.186Z" fill="#f65a82"/>
  </g>
</svg>
