<svg xmlns="http://www.w3.org/2000/svg" width="40" height="40" viewBox="0 0 40 40"><defs><style>.a{fill:rgba(0,0,0,0.15);}.b{fill:#e5b001;}.c{fill:#654e00;}</style></defs><g transform="translate(-657.961 -860.961)"><rect class="a" width="40" height="40" rx="8" transform="translate(657.961 860.961)"/><g transform="translate(664.838 837.385)"><path d="M25.765,37.091a18.376,18.376,0,0,0-25.3.01A1.587,1.587,0,0,0,0,38.232a1.546,1.546,0,0,0,.465,1.121l2.6,2.6a1.66,1.66,0,0,0,2.235.024,11.512,11.512,0,0,1,2.656-1.848A1.659,1.659,0,0,0,8.747,38.6V35.727a17.3,17.3,0,0,1,4.374-.4,16.914,16.914,0,0,1,4.374.406V38.6a1.623,1.623,0,0,0,.778,1.531,11.27,11.27,0,0,1,2.667,1.847,1.63,1.63,0,0,0,1.109.437,1.587,1.587,0,0,0,1.131-.465l2.6-2.6a1.608,1.608,0,0,0-.011-2.272Z" transform="translate(0 0)"/><path d="M63.9,209.411a.6.6,0,0,0-.086-.126l-5.983-6.5a.547.547,0,0,0-.4-.172H49.775a.547.547,0,0,0-.4.176l-5.983,6.494a.594.594,0,0,0-.086.126,6.042,6.042,0,0,0-.635,2.691v4.181a.547.547,0,0,0,.547.547H63.989a.547.547,0,0,0,.547-.547v-4.177A6.042,6.042,0,0,0,63.9,209.411Z" transform="translate(-40.482 -161.825)"/><g transform="translate(8.747 42.977)"><path class="b" d="M172.488,330.614h-1.274a.547.547,0,0,0,0,1.093h1.274a.547.547,0,0,0,0-1.093Z" transform="translate(-170.668 -326.24)"/><path class="b" d="M233.676,330.614h-1.363a.547.547,0,0,0,0,1.093h1.363a.547.547,0,1,0,0-1.093Z" transform="translate(-228.635 -326.24)"/><path class="b" d="M297.433,330.614h-1.249a.547.547,0,0,0,0,1.093h1.249a.547.547,0,1,0,0-1.093Z" transform="translate(-289.233 -326.24)"/><path class="b" d="M182.975,287.948h-1.093a.547.547,0,1,0,0,1.093h1.093a.547.547,0,0,0,0-1.093Z" transform="translate(-180.788 -285.761)"/><path class="b" d="M235.215,289.04h1.093a.547.547,0,0,0,0-1.093h-1.093a.547.547,0,1,0,0,1.093Z" transform="translate(-231.388 -285.76)"/><path class="b" d="M289.642,289.04a.547.547,0,1,0,0-1.093h-1.093a.547.547,0,0,0,0,1.093Z" transform="translate(-281.988 -285.76)"/><path class="b" d="M193.094,245.281h-.547a.547.547,0,1,0,0,1.093h.547a.547.547,0,1,0,0-1.093Z" transform="translate(-190.908 -245.281)"/><path class="b" d="M240.548,246.373h.547a.547.547,0,0,0,0-1.093h-.547a.547.547,0,1,0,0,1.093Z" transform="translate(-236.448 -245.28)"/><path class="b" d="M288.548,246.373h.547a.547.547,0,0,0,0-1.093h-.547a.547.547,0,0,0,0,1.093Z" transform="translate(-281.987 -245.28)"/></g><g transform="translate(9.84 38.603)"><path class="c" d="M192.548,163.227a.547.547,0,0,1-.547-.547v-2.187a.547.547,0,1,1,1.093,0v2.187A.547.547,0,0,1,192.548,163.227Z" transform="translate(-192.001 -159.947)"/><path class="c" d="M299.215,163.227a.547.547,0,0,1-.547-.547v-2.187a.547.547,0,0,1,1.093,0v2.187A.547.547,0,0,1,299.215,163.227Z" transform="translate(-293.201 -159.947)"/></g></g></g></svg>