<svg id="wheelchair" xmlns="http://www.w3.org/2000/svg" width="511.999" height="512" viewBox="0 0 511.999 512">
  <path id="Path_881" data-name="Path 881" d="M136,242C61.557,242,0,302.557,0,377S61.557,512,136,512s136-60.557,136-135S210.443,242,136,242Zm0,180a45,45,0,1,1,45-45A45.05,45.05,0,0,1,136,422Z" fill="#ea3664"/>
  <circle id="Ellipse_324" data-name="Ellipse 324" cx="15" cy="15" r="15" transform="translate(121 362)" fill="#ea3664"/>
  <path id="Path_882" data-name="Path 882" d="M486.395,366.395,467,385.789l-75-75V257a75.088,75.088,0,0,0-75-75H151V45.308c0-.055-.031-.1-.031-.154s.031-.1.031-.154A45.05,45.05,0,0,0,106,0H76A45.05,45.05,0,0,0,31,45a15,15,0,0,0,30,0A15.011,15.011,0,0,1,76,30h30a15.011,15.011,0,0,1,15,15c0,.055.031.1.031.154s-.031.1-.031.154V212H317a45.05,45.05,0,0,1,45,45v45H283.785a165.745,165.745,0,0,1,17.455,60H362v62.763a45,45,0,1,0,30,0V353.211l64.395,64.395a14.992,14.992,0,0,0,21.21,0l30-30a15,15,0,0,0-21.21-21.211Z" fill="#ea3664"/>
</svg>
