<svg xmlns="http://www.w3.org/2000/svg" width="507.169" height="385.839" viewBox="0 0 507.169 385.839">
  <g id="wifi" transform="translate(0 -60.665)">
    <g id="Group_774" data-name="Group 774">
      <g id="Group_773" data-name="Group 773">
        <path id="Path_809" data-name="Path 809" d="M253.476,358.88a43.812,43.812,0,1,0,43.968,43.8A43.935,43.935,0,0,0,253.476,358.88Z" fill="#8b8b8b"/>
      </g>
    </g>
    <g id="Group_776" data-name="Group 776">
      <g id="Group_775" data-name="Group 775">
        <path id="Path_810" data-name="Path 810" d="M360.732,299.2a151.856,151.856,0,0,0-214.244-.284,29.587,29.587,0,0,0,41.864,41.82,92.441,92.441,0,0,1,130.416.164,29.58,29.58,0,0,0,41.964-41.7Z" fill="#8b8b8b"/>
      </g>
    </g>
    <g id="Group_778" data-name="Group 778">
      <g id="Group_777" data-name="Group 777">
        <path id="Path_811" data-name="Path 811" d="M498.512,161.872C433.08,96.6,346.052,60.665,253.476,60.665c-92.452,0-179.392,35.852-244.8,100.968A29.58,29.58,0,0,0,50.564,203.4a287.806,287.806,0,0,1,406.02.2,29.58,29.58,0,1,0,41.928-41.737Z" fill="#8b8b8b"/>
      </g>
    </g>
    <g id="Group_780" data-name="Group 780">
      <g id="Group_779" data-name="Group 779">
        <path id="Path_812" data-name="Path 812" d="M427.876,232.256a247.073,247.073,0,0,0-348.548-.244,29.583,29.583,0,0,0,41.88,41.792,187.64,187.64,0,0,1,264.728.188,29.584,29.584,0,1,0,41.94-41.736Z" fill="#8b8b8b"/>
      </g>
    </g>
  </g>
</svg>
